<?xml version="1.0" encoding="utf-8"?>
<!-- Generator: Adobe Illustrator 21.0.0, SVG Export Plug-In . SVG Version: 6.00 Build 0)  -->
<svg version="1.1" id="Слой_1" xmlns="http://www.w3.org/2000/svg" xmlns:xlink="http://www.w3.org/1999/xlink" x="0px" y="0px"
	 viewBox="0 0 2962.2 400.6" style="enable-background:new 0 0 2962.2 400.6;" xml:space="preserve">
<style type="text/css">
	.st0{fill:#444444;}
	.st1{fill:#3FEF3F;}
</style>
<path class="st0" d="M371.2,342.2c-8.7,15.5-21.9,28.2-39.6,37.9c-17.7,9.8-39.6,14.6-65.6,14.6c-25.3,0-47.8-4.6-67.5-13.8
	c-19.7-9.2-35.4-21.9-47.1-37.9c-11.7-16.1-18.5-34.4-20.3-55h52.6c1.1,10.8,4.8,21.4,11.1,31.7c6.3,10.3,15.3,18.8,27.1,25.5
	c11.7,6.7,25.9,10,42.5,10c21.7,0,38.3-5.8,49.8-17.3c11.6-11.6,17.3-26.4,17.3-44.4c0-15.5-4.1-28.2-12.2-37.9
	c-8.1-9.8-18.2-17.4-30.1-23S261,221,240.4,214.4c-24.2-7.9-43.6-15.4-58.2-22.5c-14.6-7-27.1-17.6-37.4-31.7
	c-10.3-14.1-15.4-32.7-15.4-55.8c0-19.9,4.8-37.4,14.4-52.6c9.6-15.2,23.3-26.9,41.2-35.2c18-8.3,39-12.5,63.2-12.5
	c37.6,0,67.4,9.1,89.4,27.4c22,18.2,34.9,41.4,38.5,69.6H323C320.1,86,312.4,72.6,299.7,61c-12.6-11.6-29.8-17.3-51.5-17.3
	c-19.9,0-35.8,5.1-47.7,15.4s-17.9,24.8-17.9,43.6c0,14.8,3.9,26.8,11.6,36c7.8,9.2,17.4,16.4,29,21.7c11.6,5.2,27.4,11.1,47.7,17.6
	c24.6,7.9,44.3,15.5,59.3,22.8c15,7.2,27.7,18.2,38.2,32.8s15.7,34.1,15.7,58.2C384.2,309.9,379.9,326.7,371.2,342.2z"/>
<path class="st0" d="M499.6,49.1v130.6h145.2v37.9H499.6v133.3h161.5V391H450.3V9h210.8v40.1H499.6z"/>
<path class="st0" d="M1021.4,391h-49.3L773.8,89.2V391h-49.3V9h49.3l198.3,302.3V9h49.3L1021.4,391L1021.4,391z"/>
<path class="st0" d="M1322.9,343.1c-8.1,15.4-20.7,27.8-37.7,37.4s-38.1,14.4-63.4,14.4c-24.6,0-46.4-4.5-65.6-13.5
	c-19.1-9-34.4-21.4-45.8-37.1s-18-33.3-19.8-52.8h40.1c1.4,11.2,5.6,22.4,12.5,33.6s16.8,20.5,29.8,27.9s28.7,11.1,47.1,11.1
	c24.2,0,42.7-6.5,55.5-19.5s19.2-29.4,19.2-49.3c0-17-4.3-30.8-12.7-41.4c-8.5-10.6-19-18.9-31.4-24.7c-12.5-5.8-29.5-12.1-51.2-19
	c-23.8-7.6-43.1-14.9-57.7-21.9s-27-17.4-37.1-31.2c-10.1-13.7-15.2-32-15.2-54.7c0-28.9,10.1-52.4,30.3-70.4
	c20.2-18.1,48-27.1,83.4-27.1c36.1,0,64.7,8.9,85.9,26.5c21.1,17.7,33.7,39.7,37.7,66.1h-40.6c-3.3-16.3-11.8-30.7-25.7-43.3
	c-13.9-12.6-33-19-57.2-19c-22.4,0-40.3,5.8-53.6,17.3c-13.4,11.6-20,27.6-20,48.2c0,16.3,4.1,29.4,12.5,39.6
	c8.3,10.1,18.5,17.9,30.6,23.3c12.1,5.4,28.6,11.6,49.6,18.4c24.2,7.6,43.8,15,58.8,22.2s27.7,18.1,38.2,32.5
	c10.5,14.5,15.7,33.6,15.7,57.4C1335.1,311.4,1331.1,327.7,1322.9,343.1z"/>
<path class="st0" d="M1673.2,29.6c28.2,16.6,50.3,39.7,66.4,69.4c16.1,29.6,24.1,63.2,24.1,100.8s-8,71.2-24.1,101
	s-38.2,53-66.4,69.6c-28.2,16.6-60,24.9-95.4,24.9s-67.2-8.3-95.4-24.9c-28.2-16.6-50.3-39.8-66.4-69.6
	c-16.1-29.8-24.1-63.5-24.1-101c0-37.6,8-71.2,24.1-100.8s38.2-52.7,66.4-69.4c28.2-16.6,60-24.9,95.4-24.9
	C1613.3,4.7,1645,13,1673.2,29.6z M1502.8,59.4c-22.2,13-39.7,31.6-52.6,55.8c-12.8,24.2-19.2,52.4-19.2,84.5
	c0,32.2,6.4,60.3,19.2,84.5c12.8,24.2,30.3,42.8,52.6,55.8c22.2,13,47.2,19.5,75,19.5s52.8-6.5,75-19.5s39.7-31.6,52.6-55.8
	c12.8-24.2,19.2-52.4,19.2-84.5s-6.4-60.3-19.2-84.5c-12.8-24.2-30.3-42.8-52.6-55.8c-22.2-13-47.2-19.5-75-19.5
	C1550,39.9,1525,46.4,1502.8,59.4z"/>
<path class="st0" d="M2037.9,391l-104.6-159.3h-61.8V391H1833V9h117c43,0,75,10.1,96.2,30.3c21.1,20.2,31.7,47.5,31.7,81.8
	c0,31.8-8.9,57.1-26.8,75.9c-17.9,18.8-43.8,30-77.8,33.6L2081.2,391H2037.9z M1871.5,203h75.9c61.4,0,92.1-26.5,92.1-79.6
	c0-54.2-30.7-81.3-92.1-81.3h-75.9V203z"/>
<path class="st0" d="M2168.4,9v382H2144V9H2168.4z"/>
<path class="st0" d="M2277.9,9v234.6c0,44.4,9.8,76.9,29.3,97.5s46.1,30.9,79.6,30.9c33.2,0,59.3-10.3,78.3-30.9
	s28.4-53.1,28.4-97.5V9h24.9v234.6c0,50.9-11.8,88.9-35.5,113.8c-23.7,24.9-55.7,37.4-96.2,37.4c-40.8,0-73.2-12.5-97.3-37.4
	c-24-24.9-36-62.9-36-113.8V9H2277.9z"/>
<path class="st0" d="M2957.8,18.8V391h-24.4V61.6l-142,329.4h-22.2l-142-327.3V391H2603V18.8h27.6l150.1,341.3l149-341.3
	L2957.8,18.8L2957.8,18.8z"/>
<rect x="9.2" y="326.6" class="st1" width="64.4" height="64.4"/>
</svg>
