<?xml version="1.0" encoding="utf-8"?>
<!-- Generator: Adobe Illustrator 21.0.0, SVG Export Plug-In . SVG Version: 6.00 Build 0)  -->
<svg version="1.1" id="Слой_1" xmlns="http://www.w3.org/2000/svg" xmlns:xlink="http://www.w3.org/1999/xlink" x="0px" y="0px"
	 viewBox="0 0 800 800" style="enable-background:new 0 0 800 800;" xml:space="preserve">
<style type="text/css">
	.st0{display:none;}
	.st1{display:inline;fill:#662D91;}
	.st2{display:inline;fill:none;stroke:url(#SVGID_1_);stroke-miterlimit:10;}
	.st3{display:inline;fill:none;stroke:url(#SVGID_2_);stroke-miterlimit:10;}
	.st4{display:inline;fill:none;stroke:url(#SVGID_3_);stroke-miterlimit:10;}
	.st5{display:inline;fill:none;stroke:url(#SVGID_4_);stroke-miterlimit:10;}
	.st6{display:inline;fill:none;stroke:url(#SVGID_5_);stroke-miterlimit:10;}
	.st7{display:inline;fill:none;stroke:url(#SVGID_6_);stroke-miterlimit:10;}
	.st8{display:inline;fill:none;stroke:url(#SVGID_7_);stroke-miterlimit:10;}
	.st9{display:inline;fill:none;stroke:url(#SVGID_8_);stroke-miterlimit:10;}
	.st10{display:inline;fill:none;stroke:url(#SVGID_9_);stroke-miterlimit:10;}
	.st11{display:inline;fill:none;stroke:url(#SVGID_10_);stroke-miterlimit:10;}
	.st12{display:inline;fill:none;stroke:url(#SVGID_11_);stroke-miterlimit:10;}
	.st13{display:inline;fill:none;stroke:url(#SVGID_12_);stroke-miterlimit:10;}
	.st14{display:inline;fill:none;stroke:url(#SVGID_13_);stroke-miterlimit:10;}
	.st15{display:inline;fill:none;stroke:url(#SVGID_14_);stroke-miterlimit:10;}
	.st16{display:inline;fill:none;stroke:url(#SVGID_15_);stroke-miterlimit:10;}
	.st17{display:inline;fill:none;stroke:url(#SVGID_16_);stroke-miterlimit:10;}
	.st18{display:inline;fill:none;stroke:url(#SVGID_17_);stroke-miterlimit:10;}
	.st19{display:inline;fill:none;stroke:url(#SVGID_18_);stroke-miterlimit:10;}
	.st20{display:inline;fill:none;stroke:url(#SVGID_19_);stroke-miterlimit:10;}
	.st21{fill:none;stroke:url(#SVGID_20_);stroke-miterlimit:10;}
	.st22{fill:none;stroke:url(#SVGID_21_);stroke-miterlimit:10;}
	.st23{fill:none;stroke:url(#SVGID_22_);stroke-miterlimit:10;}
	.st24{fill:none;stroke:url(#SVGID_23_);stroke-miterlimit:10;}
	.st25{fill:none;stroke:url(#SVGID_24_);stroke-miterlimit:10;}
	.st26{fill:none;stroke:url(#SVGID_25_);stroke-miterlimit:10;}
	.st27{fill:none;stroke:url(#SVGID_26_);stroke-miterlimit:10;}
	.st28{fill:none;stroke:url(#SVGID_27_);stroke-miterlimit:10;}
	.st29{fill:none;stroke:url(#SVGID_28_);stroke-miterlimit:10;}
	.st30{fill:none;stroke:url(#SVGID_29_);stroke-miterlimit:10;}
	.st31{fill:none;stroke:url(#SVGID_30_);stroke-miterlimit:10;}
	.st32{fill:none;stroke:url(#SVGID_31_);stroke-miterlimit:10;}
	.st33{fill:none;stroke:url(#SVGID_32_);stroke-miterlimit:10;}
	.st34{fill:none;stroke:url(#SVGID_33_);stroke-miterlimit:10;}
	.st35{fill:none;stroke:url(#SVGID_34_);stroke-miterlimit:10;}
	.st36{fill:none;stroke:url(#SVGID_35_);stroke-miterlimit:10;}
	.st37{fill:none;stroke:url(#SVGID_36_);stroke-miterlimit:10;}
	.st38{fill:none;stroke:url(#SVGID_37_);stroke-miterlimit:10;}
	.st39{fill:none;stroke:url(#SVGID_38_);stroke-miterlimit:10;}
</style>
<g id="Слой_2" class="st0">
	<rect y="0" class="st1" width="802" height="802"/>
</g>
<g id="Слой_1_1_" class="st0">
	
		<radialGradient id="SVGID_1_" cx="633.1347" cy="1249.2109" r="301.768" gradientTransform="matrix(1 0 0 -6 0 9888.9004)" gradientUnits="userSpaceOnUse">
		<stop  offset="0" style="stop-color:#FFFFFF;stop-opacity:0.2"/>
		<stop  offset="1" style="stop-color:#FFFFFF"/>
	</radialGradient>
	<path class="st2" d="M797.5,7c-31.3,0.1-139.1,11.6-202.1,76C489.8,190.8,466.3,344.9,466.2,388.4c-0.1,58.8,26.7,61.9,31.9,63.8
		c13.5,4.9,25.2,3,33.4,1.5c11-2,18-5.3,44.1-19.8c21.8-12.1,32.8-18.2,45.6-25.8c22.8-13.7,24.7-15.7,42.5-25.8
		c14.9-8.5,26.6-14.4,41-19.8c22.3-8.3,30.6-7.6,36.5-6.1c2.8,0.7,16.2,4.3,21.3,15.2c4.3,9.3-0.4,17.5-6.1,36.5
		c-2.3,7.7-4.6,19.3-9.1,42.5c-3.9,19.8-7.2,37-7.6,59.3c-0.4,22.6-0.6,37.1,6.1,54.7c7.4,19.5,14.7,20.3,22.8,44.1
		c5.5,16.1,7,30.1,7.6,36.5c1.6,16.1,0.7,28.5,0,36.5c-2.2,27.1-7.2,29.4-6.1,47.1c1.1,18.1,7.2,31,9.1,34.9
		c6.7,13.5,15.5,22.4,21.3,27.3"/>
	
		<radialGradient id="SVGID_2_" cx="636.1359" cy="1249.2124" r="300.9407" gradientTransform="matrix(1 0 0 -6 0 9888.9004)" gradientUnits="userSpaceOnUse">
		<stop  offset="0" style="stop-color:#FFFFFF;stop-opacity:0.2"/>
		<stop  offset="1" style="stop-color:#FFFFFF"/>
	</radialGradient>
	<path class="st3" d="M797.5,7C766.7,7.1,660.9,18.6,599,83C495.3,190.8,472.2,344.9,472.2,388.4c-0.1,58.8,26.2,61.9,31.3,63.8
		c13.3,4.9,24.7,3,32.8,1.5c10.8-2,17.7-5.3,43.3-19.8c21.5-12.1,32.2-18.2,44.8-25.8c22.4-13.7,24.3-15.7,41.8-25.8
		c14.7-8.5,26.2-14.4,40.3-19.8c21.9-8.3,30.1-7.6,35.8-6.1c2.8,0.7,16,4.3,20.9,15.2c4.2,9.3-0.4,17.5-6,36.5
		c-2.3,7.7-4.5,19.3-9,42.5c-3.8,19.8-7.1,37-7.5,59.3c-0.3,22.6-0.6,37.1,6,54.7c7.3,19.5,14.5,20.3,22.4,44.1
		c5.4,16.1,6.8,30.1,7.5,36.5c1.6,16.1,0.6,28.5,0,36.5c-2.2,27.1-7,29.4-6,47.1c1.1,18.1,7,31,9,34.9c6.6,13.5,15.3,22.4,20.9,27.3
		"/>
	
		<radialGradient id="SVGID_3_" cx="639.2366" cy="1249.214" r="300.0983" gradientTransform="matrix(1 0 0 -6 0 9888.9004)" gradientUnits="userSpaceOnUse">
		<stop  offset="0" style="stop-color:#FFFFFF;stop-opacity:0.2"/>
		<stop  offset="1" style="stop-color:#FFFFFF"/>
	</radialGradient>
	<path class="st4" d="M797.6,7C767.4,7.1,663.7,18.6,603,83C501.2,190.8,478.6,344.9,478.5,388.4c-0.1,58.8,25.7,61.9,30.7,63.8
		c13,4.9,24.2,3,32.2,1.5c10.6-2,17.4-5.3,42.4-19.8c21-12.1,31.6-18.2,43.9-25.8c22-13.7,23.8-15.7,41-25.8
		c14.4-8.5,25.7-14.4,39.5-19.8c21.5-8.3,29.5-7.6,35.1-6.1c2.7,0.7,15.7,4.3,20.5,15.2c4.1,9.3-0.4,17.5-5.9,36.5
		c-2.2,7.7-4.4,19.3-8.8,42.5c-3.7,19.8-7,37-7.3,59.3c-0.3,22.6-0.6,37.1,5.9,54.7c7.1,19.5,14.2,20.3,22,44.1
		c5.3,16.1,6.7,30.1,7.3,36.5c1.6,16.1,0.6,28.5,0,36.5c-2.2,27.1-6.9,29.4-5.9,47.1c1.1,18.1,6.9,31,8.8,34.9
		c6.5,13.5,15,22.4,20.5,27.3"/>
	
		<radialGradient id="SVGID_4_" cx="643.1372" cy="1249.2161" r="299.0594" gradientTransform="matrix(1 0 0 -6 0 9888.9004)" gradientUnits="userSpaceOnUse">
		<stop  offset="0" style="stop-color:#FFFFFF;stop-opacity:0.2"/>
		<stop  offset="1" style="stop-color:#FFFFFF"/>
	</radialGradient>
	<path class="st5" d="M797.6,7c-29.5,0.1-130.8,11.6-190,76c-99.3,107.9-121.4,261.9-121.4,305.4c-0.1,58.8,25.1,61.9,30,63.8
		c12.7,4.9,23.6,3,31.4,1.5c10.4-2,17-5.3,41.4-19.8c20.5-12.1,30.8-18.2,42.9-25.8c21.4-13.7,23.3-15.7,40-25.8
		c14-8.5,25-14.4,38.6-19.8c21-8.3,28.8-7.6,34.3-6.1c2.7,0.7,15.3,4.3,20,15.2c4,9.3-0.4,17.5-5.7,36.5c-2.2,7.7-4.3,19.3-8.6,42.5
		c-3.6,19.8-6.8,37-7.1,59.3c-0.3,22.6-0.5,37.1,5.7,54.7c6.9,19.5,13.8,20.3,21.4,44.1c5.1,16.1,6.5,30.1,7.1,36.5
		c1.5,16.1,0.6,28.5,0,36.5c-2.1,27.1-6.7,29.4-5.7,47.1c1,18.1,6.7,31,8.6,34.9c6.3,13.5,14.6,22.4,20,27.3"/>
	
		<radialGradient id="SVGID_5_" cx="646.8387" cy="1249.218" r="298.0932" gradientTransform="matrix(1 0 0 -6 0 9888.9004)" gradientUnits="userSpaceOnUse">
		<stop  offset="0" style="stop-color:#FFFFFF;stop-opacity:0.2"/>
		<stop  offset="1" style="stop-color:#FFFFFF"/>
	</radialGradient>
	<path class="st6" d="M797.7,7C768.9,7.1,670,18.6,612.2,83c-96.9,107.9-118.5,261.9-118.6,305.4c-0.1,58.8,24.5,61.9,29.3,63.8
		c12.4,4.9,23.1,3,30.7,1.5c10.1-2,16.6-5.3,40.5-19.8c20.1-12.1,30.1-18.2,41.8-25.8c20.9-13.7,22.7-15.7,39.1-25.8
		c13.7-8.5,24.5-14.4,37.7-19.8c20.5-8.3,28.1-7.6,33.5-6.1c2.6,0.7,14.9,4.3,19.5,15.2c3.9,9.3-0.4,17.5-5.6,36.5
		c-2.1,7.7-4.2,19.3-8.4,42.5c-3.6,19.8-6.7,37-7,59.3c-0.3,22.6-0.5,37.1,5.6,54.7c6.8,19.5,13.5,20.3,20.9,44.1
		c5,16.1,6.4,30.1,7,36.5c1.5,16.1,0.6,28.5,0,36.5c-2,27.1-6.6,29.4-5.6,47.1c1,18.1,6.6,31,8.4,34.9c6.2,13.5,14.3,22.4,19.5,27.3
		"/>
	
		<radialGradient id="SVGID_6_" cx="651.9894" cy="1249.2211" r="296.7811" gradientTransform="matrix(1 0 0 -6 0 9888.9004)" gradientUnits="userSpaceOnUse">
		<stop  offset="0" style="stop-color:#FFFFFF;stop-opacity:0.2"/>
		<stop  offset="1" style="stop-color:#FFFFFF"/>
	</radialGradient>
	<path class="st7" d="M797.8,7C770,7.1,674.5,18.6,618.6,83C525,190.8,504.1,344.9,504,388.4c-0.1,58.8,23.7,61.9,28.3,63.8
		c12,4.9,22.3,3,29.6,1.5c9.8-2,16-5.3,39.1-19.8c19.4-12.1,29.1-18.2,40.4-25.8c20.2-13.7,22-15.7,37.7-25.8
		c13.2-8.5,23.6-14.4,36.4-19.8c19.8-8.3,27.2-7.6,32.3-6.1c2.5,0.7,14.4,4.3,18.9,15.2c3.8,9.3-0.4,17.5-5.4,36.5
		c-2,7.7-4.1,19.3-8.1,42.5c-3.4,19.8-6.4,37-6.7,59.3c-0.3,22.6-0.5,37.1,5.4,54.7c6.6,19.5,13.1,20.3,20.2,44.1
		c4.9,16.1,6.2,30.1,6.7,36.5c1.4,16.1,0.6,28.5,0,36.5c-2,27.1-6.3,29.4-5.4,47.1c1,18.1,6.4,31,8.1,34.9
		c6,13.5,13.8,22.4,18.9,27.3"/>
	
		<radialGradient id="SVGID_7_" cx="658.441" cy="1249.2249" r="295.1937" gradientTransform="matrix(1 0 0 -6 0 9888.9004)" gradientUnits="userSpaceOnUse">
		<stop  offset="0" style="stop-color:#FFFFFF;stop-opacity:0.2"/>
		<stop  offset="1" style="stop-color:#FFFFFF"/>
	</radialGradient>
	<path class="st8" d="M797.9,7c-26.6,0.1-118,11.6-171.5,76c-89.6,107.9-109.6,261.9-109.6,305.4c-0.1,58.8,22.6,61.9,27.1,63.8
		c11.5,4.9,21.3,3,28.4,1.5c9.4-2,15.3-5.3,37.4-19.8c18.5-12.1,27.8-18.2,38.7-25.8c19.4-13.7,21-15.7,36.1-25.8
		c12.7-8.5,22.6-14.4,34.8-19.8c18.9-8.3,26-7.6,30.9-6.1c2.4,0.7,13.8,4.3,18.1,15.2c3.6,9.3-0.4,17.5-5.2,36.5
		c-2,7.7-3.9,19.3-7.7,42.5c-3.3,19.8-6.2,37-6.4,59.3c-0.3,22.6-0.5,37.1,5.2,54.7c6.3,19.5,12.5,20.3,19.3,44.1
		c4.6,16.1,5.9,30.1,6.4,36.5c1.4,16.1,0.6,28.5,0,36.5c-1.9,27.1-6.1,29.4-5.2,47.1c0.9,18.1,6.1,31,7.7,34.9
		c5.7,13.5,13.2,22.4,18.1,27.3"/>
	
		<radialGradient id="SVGID_8_" cx="666.3434" cy="1249.23" r="293.3338" gradientTransform="matrix(1 0 0 -6 0 9888.9004)" gradientUnits="userSpaceOnUse">
		<stop  offset="0" style="stop-color:#FFFFFF;stop-opacity:0.2"/>
		<stop  offset="1" style="stop-color:#FFFFFF"/>
	</radialGradient>
	<path class="st9" d="M798.1,7c-25.1,0.1-111.5,11.6-162,76c-84.7,107.9-103.5,261.9-103.6,305.4c-0.1,58.8,21.4,61.9,25.6,63.8
		c10.8,4.9,20.2,3,26.8,1.5c8.8-2,14.5-5.3,35.3-19.8c17.5-12.1,26.3-18.2,36.6-25.8c18.3-13.7,19.8-15.7,34.1-25.8
		c12-8.5,21.4-14.4,32.9-19.8c17.9-8.3,24.6-7.6,29.2-6.1c2.3,0.7,13,4.3,17.1,15.2c3.4,9.3-0.4,17.5-4.9,36.5
		c-1.8,7.7-3.7,19.3-7.3,42.5c-3.1,19.8-5.8,37-6.1,59.3c-0.3,22.6-0.5,37.1,4.9,54.7c5.9,19.5,11.8,20.3,18.3,44.1
		c4.4,16.1,5.6,30.1,6.1,36.5c1.3,16.1,0.5,28.5,0,36.5c-1.8,27.1-5.7,29.4-4.9,47.1c0.9,18.1,5.7,31,7.3,34.9
		c5.4,13.5,12.5,22.4,17.1,27.3"/>
	
		<radialGradient id="SVGID_9_" cx="674.0954" cy="1249.2356" r="291.6004" gradientTransform="matrix(1 0 0 -6 0 9888.9004)" gradientUnits="userSpaceOnUse">
		<stop  offset="0" style="stop-color:#FFFFFF;stop-opacity:0.2"/>
		<stop  offset="1" style="stop-color:#FFFFFF"/>
	</radialGradient>
	<path class="st10" d="M798.2,7c-23.7,0.1-105,11.6-152.6,76c-79.7,107.9-97.5,261.9-97.5,305.4c-0.1,58.8,20.2,61.9,24.1,63.8
		c10.2,4.9,19,3,25.2,1.5c8.3-2,13.6-5.3,33.3-19.8c16.5-12.1,24.7-18.2,34.4-25.8c17.2-13.7,18.7-15.7,32.1-25.8
		c11.3-8.5,20.1-14.4,31-19.8c16.8-8.3,23.1-7.6,27.5-6.1c2.1,0.7,12.3,4.3,16.1,15.2c3.2,9.3-0.3,17.5-4.6,36.5
		c-1.7,7.7-3.5,19.3-6.9,42.5c-2.9,19.8-5.5,37-5.7,59.3c-0.3,22.6-0.4,37.1,4.6,54.7c5.6,19.5,11.1,20.3,17.2,44.1
		c4.1,16.1,5.2,30.1,5.7,36.5c1.2,16.1,0.5,28.5,0,36.5c-1.7,27.1-5.4,29.4-4.6,47.1c0.8,18.1,5.4,31,6.9,34.9
		c5.1,13.5,11.7,22.4,16.1,27.3"/>
	
		<radialGradient id="SVGID_10_" cx="682.9" cy="1249.2424" r="289.7445" gradientTransform="matrix(1 0 0 -6 0 9888.9004)" gradientUnits="userSpaceOnUse">
		<stop  offset="0" style="stop-color:#FFFFFF;stop-opacity:0.2"/>
		<stop  offset="1" style="stop-color:#FFFFFF"/>
	</radialGradient>
	<path class="st11" d="M798.4,7c-22,0.1-97.7,11.6-141.9,76c-74.1,107.9-90.7,261.9-90.7,305.4c0,58.8,18.7,61.9,22.4,63.8
		c9.5,4.9,17.7,3,23.5,1.5c7.7-2,12.7-5.3,30.9-19.8c15.3-12.1,23-18.2,32-25.8c16-13.7,17.4-15.7,29.9-25.8
		c10.5-8.5,18.7-14.4,28.8-19.8c15.7-8.3,21.5-7.6,25.6-6.1c2,0.7,11.4,4.3,14.9,15.2c3,9.3-0.3,17.5-4.3,36.5
		c-1.6,7.7-3.2,19.3-6.4,42.5c-2.7,19.8-5.1,37-5.3,59.3c-0.2,22.6-0.4,37.1,4.3,54.7c5.2,19.5,10.3,20.3,16,44.1
		c3.8,16.1,4.9,30.1,5.3,36.5c1.1,16.1,0.5,28.5,0,36.5c-1.6,27.1-5,29.4-4.3,47.1c0.8,18.1,5,31,6.4,34.9
		c4.7,13.5,10.9,22.4,14.9,27.3"/>
	
		<radialGradient id="SVGID_11_" cx="692.804" cy="1249.2509" r="287.8033" gradientTransform="matrix(1 0 0 -6 0 9888.9004)" gradientUnits="userSpaceOnUse">
		<stop  offset="0" style="stop-color:#FFFFFF;stop-opacity:0.2"/>
		<stop  offset="1" style="stop-color:#FFFFFF"/>
	</radialGradient>
	<path class="st12" d="M798.5,7c-20.2,0.1-89.5,11.6-130,76c-67.9,107.9-83.1,261.9-83.1,305.4c0,58.8,17.2,61.9,20.5,63.8
		c8.7,4.9,16.2,3,21.5,1.5c7.1-2,11.6-5.3,28.4-19.8c14.1-12.1,21.1-18.2,29.3-25.8c14.7-13.7,15.9-15.7,27.4-25.8
		c9.6-8.5,17.1-14.4,26.4-19.8c14.3-8.3,19.7-7.6,23.5-6.1c1.8,0.7,10.5,4.3,13.7,15.2c2.7,9.3-0.3,17.5-3.9,36.5
		c-1.5,7.7-2.9,19.3-5.9,42.5c-2.5,19.8-4.7,37-4.9,59.3c-0.2,22.6-0.4,37.1,3.9,54.7c4.8,19.5,9.5,20.3,14.7,44.1
		c3.5,16.1,4.5,30.1,4.9,36.5c1,16.1,0.4,28.5,0,36.5c-1.4,27.1-4.6,29.4-3.9,47.1c0.7,18.1,4.6,31,5.9,34.9
		c4.3,13.5,10,22.4,13.7,27.3"/>
	
		<radialGradient id="SVGID_12_" cx="702.0584" cy="1249.2595" r="286.1306" gradientTransform="matrix(1 0 0 -6 0 9888.9004)" gradientUnits="userSpaceOnUse">
		<stop  offset="0" style="stop-color:#FFFFFF;stop-opacity:0.2"/>
		<stop  offset="1" style="stop-color:#FFFFFF"/>
	</radialGradient>
	<path class="st13" d="M798.7,7C780.3,7.1,717,18.6,680,83c-62,107.9-75.9,261.9-75.9,305.4c0,58.8,15.7,61.9,18.7,63.8
		c7.9,4.9,14.8,3,19.6,1.5c6.5-2,10.6-5.3,25.9-19.8c12.8-12.1,19.3-18.2,26.8-25.8c13.4-13.7,14.5-15.7,25-25.8
		c8.8-8.5,15.7-14.4,24.1-19.8c13.1-8.3,18-7.6,21.4-6.1c1.7,0.7,9.5,4.3,12.5,15.2c2.5,9.3-0.3,17.5-3.6,36.5
		c-1.4,7.7-2.7,19.3-5.4,42.5c-2.3,19.8-4.3,37-4.5,59.3c-0.2,22.6-0.3,37.1,3.6,54.7c4.3,19.5,8.6,20.3,13.4,44.1
		c3.2,16.1,4.1,30.1,4.5,36.5c1,16.1,0.4,28.5,0,36.5c-1.3,27.1-4.2,29.4-3.6,47.1c0.6,18.1,4.2,31,5.4,34.9
		c4,13.5,9.1,22.4,12.5,27.3"/>
	
		<radialGradient id="SVGID_13_" cx="714.0656" cy="1249.2719" r="284.1704" gradientTransform="matrix(1 0 0 -6 0 9888.9004)" gradientUnits="userSpaceOnUse">
		<stop  offset="0" style="stop-color:#FFFFFF;stop-opacity:0.2"/>
		<stop  offset="1" style="stop-color:#FFFFFF"/>
	</radialGradient>
	<path class="st14" d="M798.9,7C782.7,7.1,727,18.6,694.5,83c-54.5,107.9-66.7,261.9-66.7,305.4c0,58.8,13.8,61.9,16.5,63.8
		c7,4.9,13,3,17.3,1.5c5.7-2,9.3-5.3,22.8-19.8c11.3-12.1,16.9-18.2,23.6-25.8c11.8-13.7,12.8-15.7,22-25.8
		c7.7-8.5,13.8-14.4,21.2-19.8c11.5-8.3,15.8-7.6,18.8-6.1c1.5,0.7,8.4,4.3,11,15.2c2.2,9.3-0.2,17.5-3.1,36.5
		c-1.2,7.7-2.4,19.3-4.7,42.5c-2,19.8-3.7,37-3.9,59.3c-0.2,22.6-0.3,37.1,3.1,54.7c3.8,19.5,7.6,20.3,11.8,44.1
		c2.8,16.1,3.6,30.1,3.9,36.5c0.8,16.1,0.3,28.5,0,36.5c-1.2,27.1-3.7,29.4-3.1,47.1c0.6,18.1,3.7,31,4.7,34.9
		c3.5,13.5,8,22.4,11,27.3"/>
	
		<radialGradient id="SVGID_14_" cx="724.9249" cy="1249.2843" r="282.6031" gradientTransform="matrix(1 0 0 -6 0 9888.9004)" gradientUnits="userSpaceOnUse">
		<stop  offset="0" style="stop-color:#FFFFFF;stop-opacity:0.2"/>
		<stop  offset="1" style="stop-color:#FFFFFF"/>
	</radialGradient>
	<path class="st15" d="M799.1,7c-14.1,0.1-62.8,11.6-91.2,76c-47.7,107.9-58.3,261.9-58.3,305.4c0,58.8,12,61.9,14.4,63.8
		c6.1,4.9,11.4,3,15.1,1.5c5-2,8.1-5.3,19.9-19.8c9.9-12.1,14.8-18.2,20.6-25.8c10.3-13.7,11.2-15.7,19.2-25.8
		c6.7-8.5,12-14.4,18.5-19.8c10.1-8.3,13.8-7.6,16.5-6.1c1.3,0.7,7.3,4.3,9.6,15.2c1.9,9.3-0.2,17.5-2.7,36.5
		c-1,7.7-2.1,19.3-4.1,42.5c-1.8,19.8-3.3,37-3.4,59.3c-0.2,22.6-0.3,37.1,2.7,54.7c3.3,19.5,6.6,20.3,10.3,44.1
		c2.5,16.1,3.1,30.1,3.4,36.5c0.7,16.1,0.3,28.5,0,36.5c-1,27.1-3.2,29.4-2.7,47.1c0.5,18.1,3.2,31,4.1,34.9c3,13.5,7,22.4,9.6,27.3
		"/>
	
		<radialGradient id="SVGID_15_" cx="737.3777" cy="1249.3" r="281.0525" gradientTransform="matrix(1 0 0 -6 0 9888.9004)" gradientUnits="userSpaceOnUse">
		<stop  offset="0" style="stop-color:#FFFFFF;stop-opacity:0.2"/>
		<stop  offset="1" style="stop-color:#FFFFFF"/>
	</radialGradient>
	<path class="st16" d="M799.4,7c-11.8,0.1-52.5,11.6-76.3,76c-39.9,107.9-48.7,261.9-48.8,305.4c0,58.8,10.1,61.9,12,63.8
		c5.1,4.9,9.5,3,12.6,1.5c4.2-2,6.8-5.3,16.6-19.8c8.2-12.1,12.4-18.2,17.2-25.8c8.6-13.7,9.3-15.7,16.1-25.8
		c5.6-8.5,10.1-14.4,15.5-19.8c8.4-8.3,11.6-7.6,13.8-6.1c1.1,0.7,6.1,4.3,8,15.2c1.6,9.3-0.2,17.5-2.3,36.5
		c-0.9,7.7-1.7,19.3-3.4,42.5c-1.5,19.8-2.7,37-2.9,59.3c-0.1,22.6-0.2,37.1,2.3,54.7c2.8,19.5,5.6,20.3,8.6,44.1
		c2.1,16.1,2.6,30.1,2.9,36.5c0.6,16.1,0.2,28.5,0,36.5c-0.8,27.1-2.7,29.4-2.3,47.1c0.4,18.1,2.7,31,3.4,34.9
		c2.5,13.5,5.9,22.4,8,27.3"/>
	
		<radialGradient id="SVGID_16_" cx="749.5533" cy="1249.317" r="279.7935" gradientTransform="matrix(1 0 0 -6 0 9888.9004)" gradientUnits="userSpaceOnUse">
		<stop  offset="0" style="stop-color:#FFFFFF;stop-opacity:0.2"/>
		<stop  offset="1" style="stop-color:#FFFFFF"/>
	</radialGradient>
	<path class="st17" d="M799.6,7c-9.5,0.1-42.3,11.6-61.5,76c-32.1,107.9-39.3,261.9-39.3,305.4c0,58.8,8.1,61.9,9.7,63.8
		c4.1,4.9,7.7,3,10.2,1.5c3.4-2,5.5-5.3,13.4-19.8c6.6-12.1,10-18.2,13.9-25.8c6.9-13.7,7.5-15.7,12.9-25.8
		c4.5-8.5,8.1-14.4,12.5-19.8c6.8-8.3,9.3-7.6,11.1-6.1c0.9,0.7,4.9,4.3,6.5,15.2c1.3,9.3-0.1,17.5-1.8,36.5
		c-0.7,7.7-1.4,19.3-2.8,42.5c-1.2,19.8-2.2,37-2.3,59.3c-0.1,22.6-0.2,37.1,1.8,54.7c2.2,19.5,4.5,20.3,6.9,44.1
		c1.7,16.1,2.1,30.1,2.3,36.5c0.5,16.1,0.2,28.5,0,36.5c-0.7,27.1-2.2,29.4-1.8,47.1c0.3,18.1,2.2,31,2.8,34.9
		c2,13.5,4.7,22.4,6.5,27.3"/>
	
		<radialGradient id="SVGID_17_" cx="761.5774" cy="1249.335" r="278.8044" gradientTransform="matrix(1 0 0 -6 0 9888.9004)" gradientUnits="userSpaceOnUse">
		<stop  offset="0" style="stop-color:#FFFFFF;stop-opacity:0.2"/>
		<stop  offset="1" style="stop-color:#FFFFFF"/>
	</radialGradient>
	<path class="st18" d="M799.8,7c-7.3,0.1-32.4,11.6-47.1,76c-24.6,107.9-30.1,261.9-30.1,305.4c0,58.8,6.2,61.9,7.4,63.8
		c3.1,4.9,5.9,3,7.8,1.5c2.6-2,4.2-5.3,10.3-19.8c5.1-12.1,7.6-18.2,10.6-25.8c5.3-13.7,5.8-15.7,9.9-25.8
		c3.5-8.5,6.2-14.4,9.6-19.8c5.2-8.3,7.1-7.6,8.5-6.1c0.7,0.7,3.8,4.3,5,15.2c1,9.3-0.1,17.5-1.4,36.5c-0.5,7.7-1.1,19.3-2.1,42.5
		c-0.9,19.8-1.7,37-1.8,59.3c-0.1,22.6-0.1,37.1,1.4,54.7c1.7,19.5,3.4,20.3,5.3,44.1c1.3,16.1,1.6,30.1,1.8,36.5
		c0.4,16.1,0.2,28.5,0,36.5c-0.5,27.1-1.7,29.4-1.4,47.1c0.3,18.1,1.7,31,2.1,34.9c1.6,13.5,3.6,22.4,5,27.3"/>
	
		<radialGradient id="SVGID_18_" cx="774.418" cy="1249.3556" r="278.0297" gradientTransform="matrix(1 0 0 -6 0 9888.9004)" gradientUnits="userSpaceOnUse">
		<stop  offset="0" style="stop-color:#FFFFFF;stop-opacity:0.2"/>
		<stop  offset="1" style="stop-color:#FFFFFF"/>
	</radialGradient>
	<path class="st19" d="M800,7c-4.9,0.1-21.7,11.6-31.5,76c-16.5,107.9-20.1,261.9-20.1,305.4c0,58.8,4.2,61.9,5,63.8
		c2.1,4.9,3.9,3,5.2,1.5c1.7-2,2.8-5.3,6.9-19.8c3.4-12.1,5.1-18.2,7.1-25.8c3.6-13.7,3.9-15.7,6.6-25.8c2.3-8.5,4.2-14.4,6.4-19.8
		c3.5-8.3,4.8-7.6,5.7-6.1c0.4,0.7,2.5,4.3,3.3,15.2c0.7,9.3-0.1,17.5-0.9,36.5c-0.4,7.7-0.7,19.3-1.4,42.5
		c-0.6,19.8-1.1,37-1.2,59.3c-0.1,22.6-0.1,37.1,0.9,54.7c1.2,19.5,2.3,20.3,3.6,44.1c0.9,16.1,1.1,30.1,1.2,36.5
		c0.3,16.1,0.1,28.5,0,36.5c-0.3,27.1-1.1,29.4-0.9,47.1c0.2,18.1,1.1,31,1.4,34.9c1,13.5,2.4,22.4,3.3,27.3"/>
	
		<radialGradient id="SVGID_19_" cx="787.4639" cy="1249.3774" r="277.5435" gradientTransform="matrix(1 0 0 -6 0 9888.9004)" gradientUnits="userSpaceOnUse">
		<stop  offset="0" style="stop-color:#FFFFFF;stop-opacity:0.2"/>
		<stop  offset="1" style="stop-color:#FFFFFF"/>
	</radialGradient>
	<path class="st20" d="M800.3,7c-2.4,0.1-10.8,11.6-15.8,76c-8.2,107.9-10.1,261.9-10.1,305.4c0,58.8,2.1,61.9,2.5,63.8
		c1.1,4.9,2,3,2.6,1.5c0.9-2,1.4-5.3,3.4-19.8c1.7-12.1,2.6-18.2,3.6-25.8c1.8-13.7,1.9-15.7,3.3-25.8c1.2-8.5,2.1-14.4,3.2-19.8
		c1.7-8.3,2.4-7.6,2.8-6.1c0.2,0.7,1.3,4.3,1.7,15.2c0.3,9.3,0,17.5-0.5,36.5c-0.2,7.7-0.4,19.3-0.7,42.5c-0.3,19.8-0.6,37-0.6,59.3
		c0,22.6,0,37.1,0.5,54.7c0.6,19.5,1.1,20.3,1.8,44.1c0.4,16.1,0.5,30.1,0.6,36.5c0.1,16.1,0.1,28.5,0,36.5
		c-0.2,27.1-0.6,29.4-0.5,47.1c0.1,18.1,0.6,31,0.7,34.9c0.5,13.5,1.2,22.4,1.7,27.3"/>
</g>
<g id="Слой_3">
	<linearGradient id="SVGID_20_" gradientUnits="userSpaceOnUse" x1="155.0754" y1="792.3518" x2="155.0754" y2="6.5493">
		<stop  offset="5.405406e-03" style="stop-color:#EE3E7C"/>
		<stop  offset="1" style="stop-color:#7758A5"/>
	</linearGradient>
	<path class="st21" d="M1.5,7c84.4,40.5,118.1,55.6,127.9,58.9c5,1.7,10.3,4.5,21.1,10.2c4.6,2.4,7.3,4,9.4,7.3
		c2.5,3.7,2.9,7.8,3.6,14.5c0.4,3.2,0.1,2.9,0.7,10.9c0.5,6.5,0.8,8.2,1.5,10.2c0.4,1.2,1.7,4.7,4.4,8c4.3,5.3,76.3,48.3,111.2,73.4
		c1.3,0.9,4.7,3.4,8.7,7.3c8.1,7.8,12.1,14.9,13.1,16.7c1.9,3.5,3.4,6.2,4.4,10.2c2.5,10-0.3,18.5-1.5,21.8
		c-1.2,3.4-3.8,10.7-10.9,16.7c-5.3,4.5-10.6,6.3-13.8,7.3c-7.8,2.5-14.3,2.3-16.7,2.2c-13.4-0.4-39.4-0.5-91.6-0.7
		c-1.1,0-3.8-0.4-7.3,0c-7.4,0.9-12.9,4.3-16,6.5c-18.6,13.1-37.1,36.3-37.1,36.3c-25.8,32.5-21.5,26.4-26.2,32.7
		c-28.8,38.8-56.6,83.1-59.6,88.7c-1.6,2.9-6.7,13-8,26.9c-1.4,15.1,2.3,27.1,3.6,31.3c0,0,10.1,32.5,24.7,95.9
		c8,34.5,12.9,55.9,8.7,85C55,690.8,50.9,717,34.7,747c-10.9,20.4-23.6,35.3-33.2,45"/>
	<linearGradient id="SVGID_21_" gradientUnits="userSpaceOnUse" x1="152.4748" y1="792.3481" x2="152.4748" y2="6.5507">
		<stop  offset="5.405406e-03" style="stop-color:#EE3E7C"/>
		<stop  offset="1" style="stop-color:#7758A5"/>
	</linearGradient>
	<path class="st22" d="M1.5,7c83,40.5,116.1,55.6,125.7,58.9c4.9,1.7,10.2,4.5,20.7,10.2c4.5,2.4,7.2,4,9.3,7.3
		c2.4,3.7,2.8,7.8,3.6,14.5c0.3,3.2,0.1,2.9,0.7,10.9c0.5,6.5,0.8,8.2,1.4,10.2c0.4,1.2,1.6,4.7,4.3,8c4.2,5.3,75,48.3,109.3,73.4
		c1.2,0.9,4.6,3.4,8.6,7.3c8,7.8,11.9,14.9,12.9,16.7c1.9,3.5,3.3,6.2,4.3,10.2c2.5,10-0.3,18.5-1.4,21.8
		c-1.2,3.4-3.7,10.7-10.7,16.7c-5.2,4.5-10.4,6.3-13.6,7.3c-7.7,2.5-14.1,2.3-16.4,2.2c-13.1-0.4-38.7-0.5-90-0.7
		c-1,0-3.7-0.4-7.1,0c-7.3,0.9-12.7,4.3-15.7,6.5c-18.3,13.1-36.4,36.3-36.4,36.3c-25.4,32.5-21.1,26.4-25.7,32.7
		c-28.3,38.8-55.6,83.1-58.6,88.7c-1.5,2.9-6.6,13-7.9,26.9c-1.4,15.1,2.3,27.1,3.6,31.3c0,0,9.9,32.5,24.3,95.9
		c7.8,34.5,12.7,55.9,8.6,85c-0.8,5.6-4.8,31.8-20.7,61.8c-11.1,20.4-23.7,35.3-33.1,45"/>
	<linearGradient id="SVGID_22_" gradientUnits="userSpaceOnUse" x1="149.5019" y1="792.3461" x2="149.5019" y2="6.5524">
		<stop  offset="5.405406e-03" style="stop-color:#EE3E7C"/>
		<stop  offset="1" style="stop-color:#7758A5"/>
	</linearGradient>
	<path class="st23" d="M1.5,7c81.4,40.5,113.8,55.6,123.3,58.9c4.8,1.7,10,4.5,20.3,10.2c4.4,2.4,7,4,9.1,7.3
		c2.4,3.7,2.8,7.8,3.5,14.5c0.3,3.2,0.1,2.9,0.7,10.9c0.5,6.5,0.8,8.2,1.4,10.2c0.4,1.2,1.6,4.7,4.2,8c4.2,5.3,73.6,48.3,107.2,73.4
		c1.2,0.9,4.5,3.4,8.4,7.3c7.8,7.8,11.7,14.9,12.6,16.7c1.8,3.5,3.2,6.2,4.2,10.2c2.4,10-0.3,18.5-1.4,21.8
		c-1.1,3.4-3.7,10.7-10.5,16.7c-5.1,4.5-10.2,6.3-13.3,7.3c-7.5,2.5-13.8,2.3-16.1,2.2c-12.9-0.4-38-0.5-88.2-0.7c-1,0-3.6-0.4-7,0
		c-7.1,0.9-12.4,4.3-15.4,6.5c-17.9,13.1-35.7,36.3-35.7,36.3c-24.9,32.5-20.7,26.4-25.2,32.7c-27.8,38.8-34.3,56.8-50.4,77.8
		c-1.2,1.5-4.1,5.3-7,10.9c-1.5,2.9-6.4,13-7.7,26.9c-1.4,15.1,2.2,27.1,3.5,31.3c0,0,9.7,32.5,23.8,95.9c7.7,34.5,12.4,55.9,8.4,85
		c-0.8,5.6-4.7,31.8-20.3,61.8C23,767.4,10.8,782.3,1.5,792"/>
	<linearGradient id="SVGID_23_" gradientUnits="userSpaceOnUse" x1="146.5" y1="792.3422" x2="146.5" y2="6.5542">
		<stop  offset="5.405406e-03" style="stop-color:#EE3E7C"/>
		<stop  offset="1" style="stop-color:#7758A5"/>
	</linearGradient>
	<path class="st24" d="M1.5,7c79.8,40.5,111.6,55.6,120.8,58.9c4.7,1.7,9.8,4.5,19.9,10.2c4.3,2.4,6.9,4,8.9,7.3
		c2.3,3.7,2.7,7.8,3.4,14.5c0.3,3.2,0.1,2.9,0.7,10.9c0.5,6.5,0.7,8.2,1.4,10.2c0.4,1.2,1.6,4.7,4.1,8c4.1,5.3,72.1,48.3,105,73.4
		c1.2,0.9,4.4,3.4,8.2,7.3c7.7,7.8,11.4,14.9,12.4,16.7c1.8,3.5,3.2,6.2,4.1,10.2c2.4,10-0.3,18.5-1.4,21.8
		c-1.1,3.4-3.6,10.7-10.3,16.7c-5,4.5-10,6.3-13,7.3c-7.4,2.5-13.5,2.3-15.8,2.2c-12.6-0.4-37.2-0.5-86.5-0.7c-1,0-3.5-0.4-6.9,0
		c-7,0.9-12.2,4.3-15.1,6.5c-17.6,13.1-35,36.3-35,36.3c-24.4,32.5-20.3,26.4-24.7,32.7c-27.2,38.8-33.6,56.8-49.4,77.8
		c-1.2,1.5-4,5.3-6.9,10.9c-1.5,2.9-6.3,13-7.6,26.9c-1.4,15.1,2.2,27.1,3.4,31.3c0,0,9.5,32.5,23.3,95.9c7.5,34.5,12.2,55.9,8.2,85
		c-0.8,5.6-4.6,31.8-19.9,61.8c-10.2,20.4-22.2,35.3-31.3,45"/>
	<linearGradient id="SVGID_24_" gradientUnits="userSpaceOnUse" x1="142.8265" y1="792.3361" x2="142.8265" y2="6.5566">
		<stop  offset="5.405406e-03" style="stop-color:#EE3E7C"/>
		<stop  offset="1" style="stop-color:#7758A5"/>
	</linearGradient>
	<path class="st25" d="M1.5,7c77.8,40.5,108.8,55.6,117.8,58.9c4.6,1.7,9.5,4.5,19.4,10.2c4.2,2.4,6.7,4,8.7,7.3
		c2.3,3.7,2.7,7.8,3.3,14.5c0.3,3.2,0.1,2.9,0.7,10.9c0.5,6.5,0.7,8.2,1.3,10.2c0.4,1.2,1.5,4.7,4,8c4,5.3,70.3,48.3,102.4,73.4
		c1.2,0.9,4.3,3.4,8,7.3c7.5,7.8,11.1,14.9,12,16.7c1.8,3.5,3.1,6.2,4,10.2c2.3,10-0.3,18.5-1.3,21.8c-1.1,3.4-3.5,10.7-10,16.7
		c-4.9,4.5-9.8,6.3-12.7,7.3c-7.2,2.5-13.2,2.3-15.4,2.2c-12.3-0.4-36.3-0.5-84.3-0.7c-1,0-3.5-0.4-6.7,0
		c-6.8,0.9-11.9,4.3-14.7,6.5c-17.1,13.1-34.1,36.3-34.1,36.3c-23.8,32.5-19.8,26.4-24.1,32.7c-26.5,38.8-32.8,56.8-48.2,77.8
		c-1.1,1.5-3.9,5.3-6.7,10.9c-1.4,2.9-6.1,13-7.4,26.9c-1.3,15.1,2.1,27.1,3.3,31.3c0,0,9.3,32.5,22.8,95.9c7.3,34.5,11.9,55.9,8,85
		c-0.7,5.6-4.5,31.8-19.4,61.8c-10.1,20.4-21.9,35.3-30.7,45"/>
	<linearGradient id="SVGID_25_" gradientUnits="userSpaceOnUse" x1="137.5517" y1="792.3297" x2="137.5517" y2="6.5604">
		<stop  offset="5.405406e-03" style="stop-color:#EE3E7C"/>
		<stop  offset="1" style="stop-color:#7758A5"/>
	</linearGradient>
	<path class="st26" d="M1.5,7c74.8,40.5,104.6,55.6,113.3,58.9c4.4,1.7,9.1,4.5,18.7,10.2c4,2.4,6.5,4,8.4,7.3
		c2.2,3.7,2.6,7.8,3.2,14.5c0.3,3.2,0.1,2.9,0.6,10.9c0.4,6.5,0.7,8.2,1.3,10.2c0.4,1.2,1.5,4.7,3.9,8c3.8,5.3,67.6,48.3,98.5,73.4
		c1.1,0.9,4.2,3.4,7.7,7.3c7.2,7.8,10.7,14.9,11.6,16.7c1.7,3.5,3,6.2,3.9,10.2c2.2,10-0.3,18.5-1.3,21.8c-1,3.4-3.4,10.7-9.7,16.7
		c-4.7,4.5-9.4,6.3-12.2,7.3c-6.9,2.5-12.7,2.3-14.8,2.2c-11.8-0.4-34.9-0.5-81.1-0.7c-0.9,0-3.3-0.4-6.4,0
		c-6.6,0.9-11.4,4.3-14.2,6.5c-16.5,13.1-32.8,36.3-32.8,36.3c-22.9,32.5-19,26.4-23.2,32.7c-25.5,38.8-31.5,56.8-46.3,77.8
		c-1.1,1.5-3.8,5.3-6.4,10.9c-1.4,2.9-5.9,13-7.1,26.9c-1.4,15,1.9,27,3.1,31.2c0,0,8.9,32.5,21.9,95.9c7,34.5,11.4,55.9,7.7,85
		c-0.7,5.6-4.3,31.8-18.7,61.8C21.3,767.4,10,782.3,1.5,792"/>
	<linearGradient id="SVGID_26_" gradientUnits="userSpaceOnUse" x1="131.6862" y1="792.3206" x2="131.6862" y2="6.5649">
		<stop  offset="5.405406e-03" style="stop-color:#EE3E7C"/>
		<stop  offset="1" style="stop-color:#7758A5"/>
	</linearGradient>
	<path class="st27" d="M1.5,7c71.6,40.5,100.1,55.6,108.4,58.9c4.2,1.7,8.8,4.5,17.9,10.2c3.9,2.4,6.2,4,8,7.3
		c2.1,3.7,2.5,7.8,3.1,14.5c0.3,3.2,0.1,2.9,0.6,10.9c0.4,6.5,0.7,8.2,1.2,10.2c0.3,1.2,1.4,4.7,3.7,8c3.7,5.3,64.7,48.3,94.3,73.4
		c1.1,0.9,4,3.4,7.4,7.3c6.9,7.8,10.3,14.9,11.1,16.7c1.6,3.5,2.8,6.2,3.7,10.2c2.1,10-0.2,18.5-1.2,21.8c-1,3.4-3.2,10.7-9.2,16.7
		c-4.5,4.5-9,6.3-11.7,7.3c-6.6,2.5-12.1,2.3-14.2,2.2c-11.3-0.4-33.4-0.5-77.6-0.7c-0.9,0-3.2-0.4-6.2,0
		c-6.3,0.9-10.9,4.3-13.6,6.5c-15.8,13.1-31.4,36.3-31.4,36.3c-21.9,32.5-18.2,26.4-22.2,32.7c-24.4,38.8-30.2,56.8-44.4,77.8
		c-1,1.5-3.6,5.3-6.2,10.9c-1.3,2.9-5.7,13-6.8,26.9c-1.2,15.1,2,27.1,3.1,31.3c0,0,8.5,32.5,20.9,95.9c6.7,34.5,10.9,55.9,7.4,85
		c-0.7,5.6-4.1,31.8-17.9,61.8c-9.3,20.4-20.1,35.3-28.2,45"/>
	<linearGradient id="SVGID_27_" gradientUnits="userSpaceOnUse" x1="125.1103" y1="792.311" x2="125.1103" y2="6.5705">
		<stop  offset="5.405406e-03" style="stop-color:#EE3E7C"/>
		<stop  offset="1" style="stop-color:#7758A5"/>
	</linearGradient>
	<path class="st28" d="M1.5,7c68,40.5,95.1,55.6,103,58.9c4,1.7,8.3,4.5,17,10.2c3.7,2.4,5.9,4,7.6,7.3c2,3.7,2.3,7.8,2.9,14.5
		c0.3,3.2,0.1,2.9,0.6,10.9c0.4,6.5,0.6,8.2,1.2,10.2c0.3,1.2,1.3,4.7,3.5,8c3.5,5.3,61.4,48.3,89.5,73.4c1,0.9,3.8,3.4,7,7.3
		c6.5,7.8,9.7,14.9,10.5,16.7c1.5,3.5,2.7,6.2,3.5,10.2c2,10-0.2,18.5-1.2,21.8c-0.9,3.4-3.1,10.7-8.8,16.7
		c-4.2,4.5-8.5,6.3-11.1,7.3c-6.3,2.5-11.5,2.3-13.5,2.2c-10.8-0.4-31.7-0.5-73.7-0.7c-0.8,0-3-0.4-5.9,0c-6,0.9-10.4,4.3-12.9,6.5
		c-15,13.1-29.8,36.3-29.8,36.3c-20.8,32.5-17.3,26.4-21.1,32.7c-23.2,38.8-28.6,56.8-42.1,77.8c-1,1.5-3.4,5.3-5.9,10.9
		c-1.3,2.9-5.4,13-6.4,26.9c-1.2,15.1,1.9,27.1,2.9,31.3c0,0,8.1,32.5,19.9,95.9c6.4,34.5,10.4,55.9,7,85c-0.7,5.6-3.9,31.8-17,61.8
		c-8.7,20.4-19,35.3-26.7,45"/>
	<linearGradient id="SVGID_28_" gradientUnits="userSpaceOnUse" x1="117.0846" y1="792.2981" x2="117.0846" y2="6.5783">
		<stop  offset="5.405406e-03" style="stop-color:#EE3E7C"/>
		<stop  offset="1" style="stop-color:#7758A5"/>
	</linearGradient>
	<path class="st29" d="M1.5,7c63.6,40.5,88.9,55.6,96.3,58.9c3.7,1.7,7.8,4.5,15.9,10.2c3.4,2.4,5.5,4,7.1,7.3
		c1.8,3.7,2.2,7.8,2.7,14.5c0.3,3.2,0.1,2.9,0.5,10.9c0.4,6.5,0.6,8.2,1.1,10.2c0.3,1.2,1.3,4.7,3.3,8c3.2,5.3,57.5,48.3,83.7,73.4
		c0.9,0.9,3.5,3.4,6.6,7.3c6.1,7.8,9.1,14.9,9.8,16.7c1.4,3.5,2.5,6.2,3.3,10.2c1.9,10-0.2,18.5-1.1,21.8
		c-0.9,3.4-2.9,10.7-8.2,16.7c-4,4.5-8,6.3-10.4,7.3c-5.9,2.5-10.8,2.3-12.6,2.2c-10.1-0.4-29.7-0.5-68.9-0.7c-0.8,0-2.8-0.4-5.5,0
		c-5.6,0.9-9.7,4.3-12,6.5c-14,13.1-27.9,36.3-27.9,36.3c-19.4,32.5-16.2,26.4-19.7,32.7c-21.7,38.8-26.8,56.8-39.4,77.8
		c-0.9,1.5-3.2,5.3-5.5,10.9c-1.2,2.9-5,13-6,26.9c-1.1,15.1,1.8,27.1,2.7,31.3c0,0,7.6,32.5,18.6,95.9c6,34.5,9.7,55.9,6.6,85
		c-0.6,5.6-3.7,31.8-15.9,61.8c-8.3,20.4-17.9,35.3-25.1,45"/>
	<linearGradient id="SVGID_29_" gradientUnits="userSpaceOnUse" x1="109.1089" y1="792.2842" x2="109.1089" y2="6.5874">
		<stop  offset="5.405406e-03" style="stop-color:#EE3E7C"/>
		<stop  offset="1" style="stop-color:#7758A5"/>
	</linearGradient>
	<path class="st30" d="M1.5,7c59.2,40.5,82.8,55.6,89.6,58.9c3.5,1.7,7.2,4.5,14.8,10.2c3.2,2.4,5.1,4,6.6,7.3
		c1.7,3.7,2,7.8,2.5,14.5c0.2,3.2,0.1,2.9,0.5,10.9c0.4,6.5,0.6,8.2,1,10.2c0.3,1.2,1.2,4.7,3.1,8c3,5.3,53.5,48.3,77.9,73.4
		c0.9,0.9,3.3,3.4,6.1,7.3c5.7,7.8,8.5,14.9,9.2,16.7c1.3,3.5,2.4,6.2,3.1,10.2c1.8,10-0.2,18.5-1,21.8c-0.8,3.4-2.7,10.7-7.6,16.7
		c-3.7,4.5-7.4,6.3-9.7,7.3c-5.5,2.5-10,2.3-11.7,2.2c-9.4-0.4-27.6-0.5-64.2-0.7c-0.7,0-2.6-0.4-5.1,0c-5.2,0.9-9,4.3-11.2,6.5
		c-13,13.1-26,36.3-26,36.3c-18.1,32.5-15.1,26.4-18.3,32.7c-20.2,38.8-24.9,56.8-36.7,77.8c-0.9,1.5-3,5.3-5.1,10.9
		c-1.1,2.9-4.7,13-5.6,26.9c-1,15.1,1.6,27.1,2.5,31.3c0,0,7.1,32.5,17.3,95.9c5.6,34.5,9,55.9,6.1,85C39,690.8,36.2,717,24.8,747
		c-7.6,20.4-16.6,35.3-23.3,45"/>
	<linearGradient id="SVGID_30_" gradientUnits="userSpaceOnUse" x1="100.0113" y1="792.2693" x2="100.0113" y2="6.5996">
		<stop  offset="5.405406e-03" style="stop-color:#EE3E7C"/>
		<stop  offset="1" style="stop-color:#7758A5"/>
	</linearGradient>
	<path class="st31" d="M1.5,7c54.2,40.5,75.8,55.6,82.1,58.9c3.2,1.7,6.6,4.5,13.5,10.2c2.9,2.4,4.7,4,6.1,7.3
		c1.6,3.7,1.9,7.8,2.3,14.5c0.2,3.2,0.1,2.9,0.5,10.9c0.3,6.5,0.5,8.2,0.9,10.2c0.3,1.2,1.1,4.7,2.8,8c2.8,5.3,49,48.3,71.3,73.4
		c0.8,0.9,3,3.4,5.6,7.3c5.2,7.8,7.8,14.9,8.4,16.7c1.2,3.5,2.2,6.2,2.8,10.2c1.6,10-0.2,18.5-0.9,21.8c-0.8,3.4-2.4,10.7-7,16.7
		c-3.4,4.5-6.8,6.3-8.9,7.3c-5,2.5-9.2,2.3-10.7,2.2c-8.6-0.4-25.3-0.5-58.8-0.7c-0.7,0-2.4-0.4-4.7,0c-4.8,0.9-8.3,4.3-10.3,6.5
		c-11.9,13.1-23.8,36.3-23.8,36.3c-16.6,32.5-13.8,26.4-16.8,32.7c-18.5,38.8-22.8,56.8-33.6,77.8c-0.8,1.5-2.7,5.3-4.7,10.9
		c-1,2.9-4.3,13-5.1,26.9c-0.7,15,1.7,27,2.5,31.2c0,0,6.5,32.5,15.9,95.9c5.1,34.5,8.3,55.9,5.6,85c-0.5,5.6-3.1,31.8-13.5,61.8
		C15.8,767.4,7.7,782.3,1.5,792"/>
	<linearGradient id="SVGID_31_" gradientUnits="userSpaceOnUse" x1="91.3335" y1="792.2501" x2="91.3335" y2="6.6134">
		<stop  offset="5.405406e-03" style="stop-color:#EE3E7C"/>
		<stop  offset="1" style="stop-color:#7758A5"/>
	</linearGradient>
	<path class="st32" d="M1.5,7c49.4,40.5,69.1,55.6,74.8,58.9c2.9,1.7,6,4.5,12.3,10.2c2.7,2.4,4.3,4,5.5,7.3
		c1.4,3.7,1.7,7.8,2.1,14.5c0.2,3.2,0.1,2.9,0.4,10.9c0.3,6.5,0.5,8.2,0.9,10.2c0.2,1.2,1,4.7,2.6,8c2.5,5.3,44.6,48.3,65,73.4
		c0.7,0.9,2.7,3.4,5.1,7.3c4.8,7.8,7.1,14.9,7.7,16.7c1.1,3.5,2,6.2,2.6,10.2c1.5,10-0.2,18.5-0.9,21.8c-0.7,3.4-2.2,10.7-6.4,16.7
		c-3.1,4.5-6.2,6.3-8.1,7.3c-4.6,2.5-8.4,2.3-9.8,2.2c-7.8-0.4-23.1-0.5-53.6-0.7c-0.6,0-2.2-0.4-4.3,0c-4.3,0.9-7.5,4.3-9.4,6.5
		c-10.9,13.1-21.7,36.3-21.7,36.3c-15.1,32.5-12.6,26.4-15.3,32.7c-16.9,38.8-20.8,56.8-30.6,77.8c-0.7,1.5-2.5,5.3-4.3,10.9
		c-0.9,2.9-3.9,13-4.7,26.9c-0.8,15.1,1.4,27.1,2.1,31.3c0,0,5.9,32.5,14.5,95.9c4.7,34.5,7.5,55.9,5.1,85
		c-0.5,5.6-2.8,31.8-12.3,61.8c-6.2,20.4-13.7,35.3-19.3,45"/>
	<linearGradient id="SVGID_32_" gradientUnits="userSpaceOnUse" x1="80.8852" y1="792.2292" x2="80.8852" y2="6.6338">
		<stop  offset="5.405406e-03" style="stop-color:#EE3E7C"/>
		<stop  offset="1" style="stop-color:#7758A5"/>
	</linearGradient>
	<path class="st33" d="M1.5,7c43.6,40.5,61,55.6,66,58.9c2.6,1.7,5.3,4.5,10.9,10.2c2.4,2.4,3.8,4,4.9,7.3c1.3,3.7,1.5,7.8,1.9,14.5
		c0.2,3.2,0.1,2.9,0.4,10.9c0.3,6.5,0.4,8.2,0.8,10.2c0.2,1.2,0.9,4.7,2.3,8c2.2,5.3,39.4,48.3,57.4,73.4c0.6,0.9,2.4,3.4,4.5,7.3
		c4.2,7.8,6.2,14.9,6.8,16.7c1,3.5,1.7,6.2,2.3,10.2c1.3,10-0.2,18.5-0.8,21.8c-0.6,3.4-2,10.7-5.6,16.7c-2.7,4.5-5.5,6.3-7.1,7.3
		c-4,2.5-7.4,2.3-8.6,2.2c-6.9-0.4-20.4-0.5-47.3-0.7c-0.5,0-1.9-0.4-3.8,0c-3.8,0.9-6.6,4.3-8.3,6.5c-9.6,13.1-19.1,36.3-19.1,36.3
		c-13.3,32.5-11.1,26.4-13.5,32.7c-14.9,38.8-18.4,56.8-27,77.8c-0.6,1.5-2.2,5.3-3.8,10.9c-0.8,2.9-3.4,13-4.1,26.9
		c-0.7,15.1,1.2,27.1,1.9,31.3c0,0,5.2,32.5,12.8,95.9c4.1,34.5,6.7,55.9,4.5,85C29.5,690.8,27.4,717,19,747
		c-6,20.4-12.5,35.3-17.5,45"/>
	<linearGradient id="SVGID_33_" gradientUnits="userSpaceOnUse" x1="69.3965" y1="792.2028" x2="69.3965" y2="6.6609">
		<stop  offset="5.405406e-03" style="stop-color:#EE3E7C"/>
		<stop  offset="1" style="stop-color:#7758A5"/>
	</linearGradient>
	<path class="st34" d="M1.5,7c37.4,40.5,52.3,55.6,56.6,58.9c2.2,1.7,4.6,4.5,9.3,10.2c2,2.4,3.2,4,4.2,7.3
		c1.1,3.7,1.3,7.8,1.6,14.5c0.2,3.2,0,2.9,0.3,10.9c0.2,6.5,0.3,8.2,0.6,10.2c0.2,1.2,0.7,4.7,1.9,8c1.9,5.3,33.8,48.3,49.2,73.4
		c0.6,0.9,2.1,3.4,3.9,7.3c3.6,7.8,5.4,14.9,5.8,16.7c0.8,3.5,1.5,6.2,1.9,10.2c1.1,10-0.1,18.5-0.6,21.8
		c-0.5,3.4-1.7,10.7-4.8,16.7c-2.3,4.5-4.7,6.3-6.1,7.3c-3.5,2.5-6.3,2.3-7.4,2.2c-5.9-0.4-17.5-0.5-40.5-0.7c-0.5,0-1.7-0.4-3.2,0
		c-3.3,0.9-5.7,4.3-7.1,6.5c-8.2,13.1-16.4,36.3-16.4,36.3c-11.4,32.5-9.5,26.4-11.6,32.7c-12.8,38.8-15.7,56.8-23.2,77.8
		c-0.5,1.5-1.9,5.3-3.2,10.9c-0.7,2.9-3,13-3.5,26.9c-0.6,15.1,1,27.1,1.6,31.3c0,0,4.5,32.5,10.9,95.9c3.5,34.5,5.7,55.9,3.9,85
		c-0.4,5.6-2.2,31.8-9.3,61.8c-4.9,20.4-10.5,35.3-14.8,45"/>
	<linearGradient id="SVGID_34_" gradientUnits="userSpaceOnUse" x1="59.2979" y1="792.1741" x2="59.2979" y2="6.6913">
		<stop  offset="5.405406e-03" style="stop-color:#EE3E7C"/>
		<stop  offset="1" style="stop-color:#7758A5"/>
	</linearGradient>
	<path class="st35" d="M1.5,7C33.3,47.5,46,62.6,49.7,65.9c1.9,1.7,3.9,4.5,7.9,10.2c1.7,2.4,2.8,4,3.6,7.3
		c0.9,3.7,1.1,7.8,1.4,14.5c0.1,3.2,0,2.9,0.3,10.9c0.2,6.5,0.3,8.2,0.5,10.2c0.2,1.2,0.6,4.7,1.6,8c1.6,5.3,28.7,48.3,41.9,73.4
		c0.5,0.9,1.8,3.4,3.3,7.3c3.1,7.8,4.6,14.9,4.9,16.7c0.7,3.5,1.3,6.2,1.6,10.2c0.9,10-0.1,18.5-0.5,21.8
		c-0.4,3.4-1.4,10.7-4.1,16.7c-2,4.5-4,6.3-5.2,7.3c-2.9,2.5-5.4,2.3-6.3,2.2c-5-0.4-14.8-0.5-34.5-0.7c-0.4,0-1.4-0.4-2.7,0
		c-2.8,0.9-4.8,4.3-6,6.5c-7,13.1-14,36.3-14,36.3c-9.7,32.5-8.1,26.4-9.8,32.7c-10.8,38.8-13.4,56.8-19.7,77.8
		c-0.5,1.5-1.6,5.3-2.7,10.9c-0.6,2.9-2.5,13-3,26.9c-0.7,15,0.7,27,1.2,31.2c0,0,3.8,32.5,9.3,95.9c3,34.5,4.9,55.9,3.3,85
		c-0.3,5.6-1.8,31.8-7.9,61.8c-4.2,20.5-9,35.4-12.6,45.1"/>
	<linearGradient id="SVGID_35_" gradientUnits="userSpaceOnUse" x1="48.0221" y1="792.1433" x2="48.0221" y2="6.7329">
		<stop  offset="5.405406e-03" style="stop-color:#EE3E7C"/>
		<stop  offset="1" style="stop-color:#7758A5"/>
	</linearGradient>
	<path class="st36" d="M1.5,7c25.6,40.5,35.8,55.6,38.8,58.9c1.5,1.7,3.1,4.5,6.4,10.2c1.4,2.4,2.2,4,2.9,7.3
		c0.7,3.7,0.9,7.8,1.1,14.5c0.1,3.2,0,2.9,0.2,10.9c0.2,6.5,0.2,8.2,0.4,10.2c0.1,1.2,0.5,4.7,1.3,8c1.3,5.3,23.1,48.3,33.7,73.4
		c0.4,0.9,1.4,3.4,2.6,7.3c2.5,7.8,3.7,14.9,4,16.7c0.6,3.5,1,6.2,1.3,10.2c0.8,10-0.1,18.5-0.4,21.8c-0.4,3.4-1.2,10.7-3.3,16.7
		c-1.6,4.5-3.2,6.3-4.2,7.3c-2.4,2.5-4.3,2.3-5.1,2.2c-4-0.4-11.9-0.5-27.8-0.7c-0.3,0-1.1-0.4-2.2,0c-2.2,0.9-3.9,4.3-4.8,6.5
		c-5.6,13.1-11.2,36.3-11.2,36.3c-7.8,32.5-6.5,26.4-7.9,32.7c-8.7,38.8-10.8,56.8-15.9,77.8c-0.4,1.5-1.3,5.3-2.2,10.9
		c-0.5,2.9-2,13-2.4,26.9c-0.4,15,0.7,27,1.1,31.2c0,0,3.1,32.5,7.5,95.9c2.4,34.5,3.9,55.9,2.6,85c-0.2,5.6-1.5,31.8-6.4,61.8
		C8.3,767.4,4.4,782.3,1.5,792"/>
	<linearGradient id="SVGID_36_" gradientUnits="userSpaceOnUse" x1="35.5246" y1="792.1059" x2="35.5246" y2="6.7905">
		<stop  offset="5.405406e-03" style="stop-color:#EE3E7C"/>
		<stop  offset="1" style="stop-color:#7758A5"/>
	</linearGradient>
	<path class="st37" d="M1.5,7c18.7,40.5,26.2,55.6,28.3,58.9c1.1,1.7,2.3,4.5,4.7,10.2c1,2.4,1.6,4,2.1,7.3
		c0.5,3.7,0.6,7.8,0.8,14.5c0.1,3.2,0,2.9,0.2,10.9c0.1,6.5,0.2,8.2,0.3,10.2c0.1,1.2,0.4,4.7,1,8c1,5.3,16.9,48.3,24.6,73.4
		c0.3,0.9,1,3.4,1.9,7.3c1.8,7.8,2.7,14.9,2.9,16.7c0.4,3.5,0.7,6.2,1,10.2c0.6,10-0.1,18.5-0.3,21.8c-0.3,3.4-0.8,10.7-2.4,16.7
		c-1.2,4.5-2.3,6.3-3.1,7.3c-1.7,2.5-3.2,2.3-3.7,2.2c-3-0.4-8.7-0.5-20.3-0.7c-0.2,0-0.8-0.4-1.6,0c-1.6,0.9-2.9,4.3-3.5,6.5
		c-4.1,13.1-8.2,36.3-8.2,36.3c-5.7,32.5-4.8,26.4-5.8,32.7c-6.4,38.8-7.9,56.8-11.6,77.8c-0.3,1.5-0.9,5.3-1.6,10.9
		c-0.3,2.9-1.5,13-1.8,26.9c-0.4,15,0.5,27,0.8,31.2c0,0,2.2,32.5,5.5,95.9c1.8,34.5,2.9,55.9,1.9,85c-0.2,5.6-1.1,31.8-4.7,61.8
		c-2.5,20.5-5.3,35.4-7.4,45.1"/>
	<linearGradient id="SVGID_37_" gradientUnits="userSpaceOnUse" x1="24.7885" y1="792.0765" x2="24.7885" y2="6.8494">
		<stop  offset="5.405406e-03" style="stop-color:#EE3E7C"/>
		<stop  offset="1" style="stop-color:#7758A5"/>
	</linearGradient>
	<path class="st38" d="M1.5,7c12.8,40.5,17.9,55.6,19.4,58.9c0.8,1.7,1.6,4.5,3.2,10.2c0.7,2.4,1.1,4,1.4,7.3
		c0.4,3.7,0.4,7.8,0.6,14.5c0.1,3.2,0,2.9,0.1,10.9c0.1,6.5,0.1,8.2,0.2,10.2c0.1,1.2,0.3,4.7,0.7,8c0.7,5.3,11.6,48.3,16.8,73.4
		c0.2,0.9,0.7,3.4,1.3,7.3c1.2,7.8,1.8,14.9,2,16.7c0.3,3.5,0.5,6.2,0.7,10.2c0.4,10,0,18.5-0.2,21.8c-0.2,3.4-0.6,10.7-1.7,16.7
		c-0.8,4.5-1.6,6.3-2.1,7.3c-1.2,2.5-2.2,2.3-2.5,2.2c-2-0.4-6-0.5-13.9-0.7c-0.2,0-0.6-0.4-1.1,0c-1.1,0.9-2,4.3-2.4,6.5
		c-2.8,13.1-5.6,36.3-5.6,36.3c-3.9,32.5-3.3,26.4-4,32.7C10,396.1,9,414.1,6.5,435.1c-0.2,1.5-0.6,5.3-1.1,10.9
		c-0.2,2.9-1,13-1.2,26.9C3.9,488,4.5,500,4.7,504.2c0,0,1.5,32.5,3.7,95.9c1.2,34.5,2,55.9,1.3,85c-0.1,5.6-0.7,31.8-3.2,61.8
		c-1.6,20.5-3.5,35.4-5,45.1"/>
	<linearGradient id="SVGID_38_" gradientUnits="userSpaceOnUse" x1="13.1459" y1="792.0361" x2="13.1459" y2="6.9221">
		<stop  offset="5.405406e-03" style="stop-color:#EE3E7C"/>
		<stop  offset="1" style="stop-color:#7758A5"/>
	</linearGradient>
	<path class="st39" d="M1.5,7c6.4,40.5,9,55.6,9.7,58.9c0.4,1.7,0.8,4.5,1.6,10.2c0.3,2.4,0.6,4,0.7,7.3c0.2,3.7,0.2,7.8,0.3,14.5
		c0,3.2,0,2.9,0.1,10.9c0,6.5,0.1,8.2,0.1,10.2c0,1.2,0.1,4.7,0.3,8c0.3,5.3,5.8,48.3,8.4,73.4c0.1,0.9,0.4,3.4,0.7,7.3
		c0.6,7.8,0.9,14.9,1,16.7c0.1,3.5,0.3,6.2,0.3,10.2c0.2,10,0,18.5-0.1,21.8c-0.1,3.4-0.3,10.7-0.8,16.7c-0.4,4.5-0.8,6.3-1,7.3
		c-0.6,2.5-1.1,2.3-1.3,2.2c-1-0.4-3-0.5-6.9-0.7c-0.1,0-0.3-0.4-0.6,0c-0.6,0.9-1,4.3-1.2,6.5c-1.4,13.1-2.8,36.3-2.8,36.3
		c-2,32.5-1.6,26.4-2,32.7c-2.2,38.8-2.7,56.8-4,77.8c-0.1,1.5-0.3,5.3-0.6,10.9c-0.1,2.9-0.5,13-0.6,26.9c-0.1,15,0.2,27,0.3,31.2
		c0,0,0.8,32.5,1.9,95.9c0.6,34.5,1,55.9,0.7,85c-0.1,5.6-0.4,31.8-1.6,61.8c-0.8,20.5-1.8,35.4-2.5,45.1"/>
</g>
</svg>
