<?xml version="1.0" encoding="utf-8"?>
<!-- Generator: Adobe Illustrator 21.0.0, SVG Export Plug-In . SVG Version: 6.00 Build 0)  -->
<svg version="1.1" id="Слой_1" xmlns="http://www.w3.org/2000/svg" xmlns:xlink="http://www.w3.org/1999/xlink" x="0px" y="0px"
	 viewBox="0 0 800 800" style="enable-background:new 0 0 800 800;" xml:space="preserve">
<style type="text/css">
	.st0{fill:none;stroke:url(#SVGID_1_);stroke-miterlimit:10;}
	.st1{fill:none;stroke:url(#SVGID_2_);stroke-miterlimit:10;}
	.st2{fill:none;stroke:url(#SVGID_3_);stroke-miterlimit:10;}
	.st3{fill:none;stroke:url(#SVGID_4_);stroke-miterlimit:10;}
	.st4{fill:none;stroke:url(#SVGID_5_);stroke-miterlimit:10;}
	.st5{fill:none;stroke:url(#SVGID_6_);stroke-miterlimit:10;}
	.st6{fill:none;stroke:url(#SVGID_7_);stroke-miterlimit:10;}
	.st7{fill:none;stroke:url(#SVGID_8_);stroke-miterlimit:10;}
	.st8{fill:none;stroke:url(#SVGID_9_);stroke-miterlimit:10;}
	.st9{fill:none;stroke:url(#SVGID_10_);stroke-miterlimit:10;}
	.st10{fill:none;stroke:url(#SVGID_11_);stroke-miterlimit:10;}
	.st11{fill:none;stroke:url(#SVGID_12_);stroke-miterlimit:10;}
	.st12{fill:none;stroke:url(#SVGID_13_);stroke-miterlimit:10;}
	.st13{fill:none;stroke:url(#SVGID_14_);stroke-miterlimit:10;}
	.st14{fill:none;stroke:url(#SVGID_15_);stroke-miterlimit:10;}
	.st15{fill:none;stroke:url(#SVGID_16_);stroke-miterlimit:10;}
	.st16{fill:none;stroke:url(#SVGID_17_);stroke-miterlimit:10;}
	.st17{fill:none;stroke:url(#SVGID_18_);stroke-miterlimit:10;}
	.st18{fill:none;stroke:url(#SVGID_19_);stroke-miterlimit:10;}
</style>
<linearGradient id="SVGID_1_" gradientUnits="userSpaceOnUse" x1="633.2612" y1="791.382" x2="633.2612" y2="6.5001">
	<stop  offset="2.162162e-02" style="stop-color:#EE3E7C"/>
	<stop  offset="7.640468e-02" style="stop-color:#E5407F"/>
	<stop  offset="0.3748" style="stop-color:#B64A8F"/>
	<stop  offset="0.639" style="stop-color:#93529B"/>
	<stop  offset="0.8564" style="stop-color:#7F56A2"/>
	<stop  offset="1" style="stop-color:#7758A5"/>
</linearGradient>
<path class="st0" d="M797.5,7c-31.3,0.1-139.1,11.6-202.1,76C489.8,190.8,466.3,344.9,466.2,388.4c-0.1,58.8,26.7,61.9,31.9,63.8
	c13.5,4.9,25.2,3,33.4,1.5c11-2,18-5.3,44.1-19.8c21.8-12.1,32.8-18.2,45.6-25.8c22.8-13.7,24.7-15.7,42.5-25.8
	c14.9-8.5,26.6-14.4,41-19.8c22.3-8.3,30.6-7.6,36.5-6.1c2.8,0.7,16.2,4.3,21.3,15.2c4.3,9.3-0.4,17.5-6.1,36.5
	c-2.3,7.7-4.6,19.3-9.1,42.5c-3.9,19.8-7.2,37-7.6,59.3c-0.4,22.6-0.6,37.1,6.1,54.7c7.4,19.5,14.7,20.3,22.8,44.1
	c5.5,16.1,7,30.1,7.6,36.5c1.6,16.1,0.7,28.5,0,36.5c-2.2,27.1-7.2,29.4-6.1,47.1c1.1,18.1,7.2,31,9.1,34.9
	c6.7,13.5,15.5,22.4,21.3,27.3"/>
<linearGradient id="SVGID_2_" gradientUnits="userSpaceOnUse" x1="636.2645" y1="791.3764" x2="636.2645" y2="6.5001">
	<stop  offset="2.162162e-02" style="stop-color:#EE3E7C"/>
	<stop  offset="7.640468e-02" style="stop-color:#E5407F"/>
	<stop  offset="0.3748" style="stop-color:#B64A8F"/>
	<stop  offset="0.639" style="stop-color:#93529B"/>
	<stop  offset="0.8564" style="stop-color:#7F56A2"/>
	<stop  offset="1" style="stop-color:#7758A5"/>
</linearGradient>
<path class="st1" d="M797.5,7C766.7,7.1,660.9,18.6,599,83C495.3,190.8,472.2,344.9,472.2,388.4c-0.1,58.8,26.2,61.9,31.3,63.8
	c13.3,4.9,24.7,3,32.8,1.5c10.8-2,17.7-5.3,43.3-19.8c21.5-12.1,32.2-18.2,44.8-25.8c22.4-13.7,24.3-15.7,41.8-25.8
	c14.7-8.5,26.2-14.4,40.3-19.8c21.9-8.3,30.1-7.6,35.8-6.1c2.8,0.7,16,4.3,20.9,15.2c4.2,9.3-0.4,17.5-6,36.5
	c-2.3,7.7-4.5,19.3-9,42.5c-3.8,19.8-7.1,37-7.5,59.3c-0.3,22.6-0.6,37.1,6,54.7c7.3,19.5,14.5,20.3,22.4,44.1
	c5.4,16.1,6.8,30.1,7.5,36.5c1.6,16.1,0.6,28.5,0,36.5c-2.2,27.1-7,29.4-6,47.1c1.1,18.1,7,31,9,34.9c6.6,13.5,15.3,22.4,20.9,27.3"
	/>
<linearGradient id="SVGID_3_" gradientUnits="userSpaceOnUse" x1="639.3661" y1="791.3734" x2="639.3661" y2="6.5001">
	<stop  offset="2.162162e-02" style="stop-color:#EE3E7C"/>
	<stop  offset="7.640468e-02" style="stop-color:#E5407F"/>
	<stop  offset="0.3748" style="stop-color:#B64A8F"/>
	<stop  offset="0.639" style="stop-color:#93529B"/>
	<stop  offset="0.8564" style="stop-color:#7F56A2"/>
	<stop  offset="1" style="stop-color:#7758A5"/>
</linearGradient>
<path class="st2" d="M797.6,7C767.4,7.1,663.7,18.6,603,83C501.2,190.8,478.6,344.9,478.5,388.4c-0.1,58.8,25.7,61.9,30.7,63.8
	c13,4.9,24.2,3,32.2,1.5c10.6-2,17.4-5.3,42.4-19.8c21-12.1,31.6-18.2,43.9-25.8c22-13.7,23.8-15.7,41-25.8
	c14.4-8.5,25.7-14.4,39.5-19.8c21.5-8.3,29.5-7.6,35.1-6.1c2.7,0.7,15.7,4.3,20.5,15.2c4.1,9.3-0.4,17.5-5.9,36.5
	c-2.2,7.7-4.4,19.3-8.8,42.5c-3.7,19.8-7,37-7.3,59.3c-0.3,22.6-0.6,37.1,5.9,54.7c7.1,19.5,14.2,20.3,22,44.1
	c5.3,16.1,6.7,30.1,7.3,36.5c1.6,16.1,0.6,28.5,0,36.5c-2.2,27.1-6.9,29.4-5.9,47.1c1.1,18.1,6.9,31,8.8,34.9
	c6.5,13.5,15,22.4,20.5,27.3"/>
<linearGradient id="SVGID_4_" gradientUnits="userSpaceOnUse" x1="643.2678" y1="791.3704" x2="643.2678" y2="6.5001">
	<stop  offset="2.162162e-02" style="stop-color:#EE3E7C"/>
	<stop  offset="7.640468e-02" style="stop-color:#E5407F"/>
	<stop  offset="0.3748" style="stop-color:#B64A8F"/>
	<stop  offset="0.639" style="stop-color:#93529B"/>
	<stop  offset="0.8564" style="stop-color:#7F56A2"/>
	<stop  offset="1" style="stop-color:#7758A5"/>
</linearGradient>
<path class="st3" d="M797.6,7c-29.5,0.1-130.8,11.6-190,76c-99.3,107.9-121.4,261.9-121.4,305.4c-0.1,58.8,25.1,61.9,30,63.8
	c12.7,4.9,23.6,3,31.4,1.5c10.4-2,17-5.3,41.4-19.8c20.5-12.1,30.8-18.2,42.9-25.8c21.4-13.7,23.3-15.7,40-25.8
	c14-8.5,25-14.4,38.6-19.8c21-8.3,28.8-7.6,34.3-6.1c2.7,0.7,15.3,4.3,20,15.2c4,9.3-0.4,17.5-5.7,36.5c-2.2,7.7-4.3,19.3-8.6,42.5
	c-3.6,19.8-6.8,37-7.1,59.3c-0.3,22.6-0.5,37.1,5.7,54.7c6.9,19.5,13.8,20.3,21.4,44.1c5.1,16.1,6.5,30.1,7.1,36.5
	c1.5,16.1,0.6,28.5,0,36.5c-2.1,27.1-6.7,29.4-5.7,47.1c1,18.1,6.7,31,8.6,34.9c6.3,13.5,14.6,22.4,20,27.3"/>
<linearGradient id="SVGID_5_" gradientUnits="userSpaceOnUse" x1="646.9713" y1="791.364" x2="646.9713" y2="6.5001">
	<stop  offset="2.162162e-02" style="stop-color:#EE3E7C"/>
	<stop  offset="7.640468e-02" style="stop-color:#E5407F"/>
	<stop  offset="0.3748" style="stop-color:#B64A8F"/>
	<stop  offset="0.639" style="stop-color:#93529B"/>
	<stop  offset="0.8564" style="stop-color:#7F56A2"/>
	<stop  offset="1" style="stop-color:#7758A5"/>
</linearGradient>
<path class="st4" d="M797.7,7C768.9,7.1,670,18.6,612.2,83c-96.9,107.9-118.5,261.9-118.6,305.4c-0.1,58.8,24.5,61.9,29.3,63.8
	c12.4,4.9,23.1,3,30.7,1.5c10.1-2,16.6-5.3,40.5-19.8c20.1-12.1,30.1-18.2,41.8-25.8c20.9-13.7,22.7-15.7,39.1-25.8
	c13.7-8.5,24.5-14.4,37.7-19.8c20.5-8.3,28.1-7.6,33.5-6.1c2.6,0.7,14.9,4.3,19.5,15.2c3.9,9.3-0.4,17.5-5.6,36.5
	c-2.1,7.7-4.2,19.3-8.4,42.5c-3.6,19.8-6.7,37-7,59.3c-0.3,22.6-0.5,37.1,5.6,54.7c6.8,19.5,13.5,20.3,20.9,44.1
	c5,16.1,6.4,30.1,7,36.5c1.5,16.1,0.6,28.5,0,36.5c-2,27.1-6.6,29.4-5.6,47.1c1,18.1,6.6,31,8.4,34.9c6.2,13.5,14.3,22.4,19.5,27.3"
	/>
<linearGradient id="SVGID_6_" gradientUnits="userSpaceOnUse" x1="652.123" y1="791.3607" x2="652.123" y2="6.5001">
	<stop  offset="2.162162e-02" style="stop-color:#EE3E7C"/>
	<stop  offset="7.640468e-02" style="stop-color:#E5407F"/>
	<stop  offset="0.3748" style="stop-color:#B64A8F"/>
	<stop  offset="0.639" style="stop-color:#93529B"/>
	<stop  offset="0.8564" style="stop-color:#7F56A2"/>
	<stop  offset="1" style="stop-color:#7758A5"/>
</linearGradient>
<path class="st5" d="M797.8,7C770,7.1,674.5,18.6,618.6,83C525,190.8,504.1,344.9,504,388.4c-0.1,58.8,23.7,61.9,28.3,63.8
	c12,4.9,22.3,3,29.6,1.5c9.8-2,16-5.3,39.1-19.8c19.4-12.1,29.1-18.2,40.4-25.8c20.2-13.7,22-15.7,37.7-25.8
	c13.2-8.5,23.6-14.4,36.4-19.8c19.8-8.3,27.2-7.6,32.3-6.1c2.5,0.7,14.4,4.3,18.9,15.2c3.8,9.3-0.4,17.5-5.4,36.5
	c-2,7.7-4.1,19.3-8.1,42.5c-3.4,19.8-6.4,37-6.7,59.3c-0.3,22.6-0.5,37.1,5.4,54.7c6.6,19.5,13.1,20.3,20.2,44.1
	c4.9,16.1,6.2,30.1,6.7,36.5c1.4,16.1,0.6,28.5,0,36.5c-2,27.1-6.3,29.4-5.4,47.1c1,18.1,6.4,31,8.1,34.9
	c6,13.5,13.8,22.4,18.9,27.3"/>
<linearGradient id="SVGID_7_" gradientUnits="userSpaceOnUse" x1="658.5767" y1="791.3536" x2="658.5767" y2="6.5001">
	<stop  offset="2.162162e-02" style="stop-color:#EE3E7C"/>
	<stop  offset="7.640468e-02" style="stop-color:#E5407F"/>
	<stop  offset="0.3748" style="stop-color:#B64A8F"/>
	<stop  offset="0.639" style="stop-color:#93529B"/>
	<stop  offset="0.8564" style="stop-color:#7F56A2"/>
	<stop  offset="1" style="stop-color:#7758A5"/>
</linearGradient>
<path class="st6" d="M797.9,7c-26.6,0.1-118,11.6-171.5,76c-89.6,107.9-109.6,261.9-109.6,305.4c-0.1,58.8,22.6,61.9,27.1,63.8
	c11.5,4.9,21.3,3,28.4,1.5c9.4-2,15.3-5.3,37.4-19.8c18.5-12.1,27.8-18.2,38.7-25.8c19.4-13.7,21-15.7,36.1-25.8
	c12.7-8.5,22.6-14.4,34.8-19.8c18.9-8.3,26-7.6,30.9-6.1c2.4,0.7,13.8,4.3,18.1,15.2c3.6,9.3-0.4,17.5-5.2,36.5
	c-2,7.7-3.9,19.3-7.7,42.5c-3.3,19.8-6.2,37-6.4,59.3c-0.3,22.6-0.5,37.1,5.2,54.7c6.3,19.5,12.5,20.3,19.3,44.1
	c4.6,16.1,5.9,30.1,6.4,36.5c1.4,16.1,0.6,28.5,0,36.5c-1.9,27.1-6.1,29.4-5.2,47.1c0.9,18.1,6.1,31,7.7,34.9
	c5.7,13.5,13.2,22.4,18.1,27.3"/>
<linearGradient id="SVGID_8_" gradientUnits="userSpaceOnUse" x1="666.482" y1="791.3423" x2="666.482" y2="6.5001">
	<stop  offset="2.162162e-02" style="stop-color:#EE3E7C"/>
	<stop  offset="7.640468e-02" style="stop-color:#E5407F"/>
	<stop  offset="0.3748" style="stop-color:#B64A8F"/>
	<stop  offset="0.639" style="stop-color:#93529B"/>
	<stop  offset="0.8564" style="stop-color:#7F56A2"/>
	<stop  offset="1" style="stop-color:#7758A5"/>
</linearGradient>
<path class="st7" d="M798.1,7c-25.1,0.1-111.5,11.6-162,76c-84.7,107.9-103.5,261.9-103.6,305.4c-0.1,58.8,21.4,61.9,25.6,63.8
	c10.8,4.9,20.2,3,26.8,1.5c8.8-2,14.5-5.3,35.3-19.8c17.5-12.1,26.3-18.2,36.6-25.8c18.3-13.7,19.8-15.7,34.1-25.8
	c12-8.5,21.4-14.4,32.9-19.8c17.9-8.3,24.6-7.6,29.2-6.1c2.3,0.7,13,4.3,17.1,15.2c3.4,9.3-0.4,17.5-4.9,36.5
	c-1.8,7.7-3.7,19.3-7.3,42.5c-3.1,19.8-5.8,37-6.1,59.3c-0.3,22.6-0.5,37.1,4.9,54.7c5.9,19.5,11.8,20.3,18.3,44.1
	c4.4,16.1,5.6,30.1,6.1,36.5c1.3,16.1,0.5,28.5,0,36.5c-1.8,27.1-5.7,29.4-4.9,47.1c0.9,18.1,5.7,31,7.3,34.9
	c5.4,13.5,12.5,22.4,17.1,27.3"/>
<linearGradient id="SVGID_9_" gradientUnits="userSpaceOnUse" x1="674.2358" y1="791.3342" x2="674.2358" y2="6.5001">
	<stop  offset="2.162162e-02" style="stop-color:#EE3E7C"/>
	<stop  offset="7.640468e-02" style="stop-color:#E5407F"/>
	<stop  offset="0.3748" style="stop-color:#B64A8F"/>
	<stop  offset="0.639" style="stop-color:#93529B"/>
	<stop  offset="0.8564" style="stop-color:#7F56A2"/>
	<stop  offset="1" style="stop-color:#7758A5"/>
</linearGradient>
<path class="st8" d="M798.2,7c-23.7,0.1-105,11.6-152.6,76c-79.7,107.9-97.5,261.9-97.5,305.4c-0.1,58.8,20.2,61.9,24.1,63.8
	c10.2,4.9,19,3,25.2,1.5c8.3-2,13.6-5.3,33.3-19.8c16.5-12.1,24.7-18.2,34.4-25.8c17.2-13.7,18.7-15.7,32.1-25.8
	c11.3-8.5,20.1-14.4,31-19.8c16.8-8.3,23.1-7.6,27.5-6.1c2.1,0.7,12.3,4.3,16.1,15.2c3.2,9.3-0.3,17.5-4.6,36.5
	c-1.7,7.7-3.5,19.3-6.9,42.5c-2.9,19.8-5.5,37-5.7,59.3c-0.3,22.6-0.4,37.1,4.6,54.7c5.6,19.5,11.1,20.3,17.2,44.1
	c4.1,16.1,5.2,30.1,5.7,36.5c1.2,16.1,0.5,28.5,0,36.5c-1.7,27.1-5.4,29.4-4.6,47.1c0.8,18.1,5.4,31,6.9,34.9
	c5.1,13.5,11.7,22.4,16.1,27.3"/>
<linearGradient id="SVGID_10_" gradientUnits="userSpaceOnUse" x1="683.0437" y1="791.3163" x2="683.0437" y2="6.5001">
	<stop  offset="2.162162e-02" style="stop-color:#EE3E7C"/>
	<stop  offset="7.640468e-02" style="stop-color:#E5407F"/>
	<stop  offset="0.3748" style="stop-color:#B64A8F"/>
	<stop  offset="0.639" style="stop-color:#93529B"/>
	<stop  offset="0.8564" style="stop-color:#7F56A2"/>
	<stop  offset="1" style="stop-color:#7758A5"/>
</linearGradient>
<path class="st9" d="M798.4,7c-22,0.1-97.7,11.6-141.9,76c-74.1,107.9-90.7,261.9-90.7,305.4c0,58.8,18.7,61.9,22.4,63.8
	c9.5,4.9,17.7,3,23.5,1.5c7.7-2,12.7-5.3,30.9-19.8c15.3-12.1,23-18.2,32-25.8c16-13.7,17.4-15.7,29.9-25.8
	c10.5-8.5,18.7-14.4,28.8-19.8c15.7-8.3,21.5-7.6,25.6-6.1c2,0.7,11.4,4.3,14.9,15.2c3,9.3-0.3,17.5-4.3,36.5
	c-1.6,7.7-3.2,19.3-6.4,42.5c-2.7,19.8-5.1,37-5.3,59.3c-0.2,22.6-0.4,37.1,4.3,54.7c5.2,19.5,10.3,20.3,16,44.1
	c3.8,16.1,4.9,30.1,5.3,36.5c1.1,16.1,0.5,28.5,0,36.5c-1.6,27.1-5,29.4-4.3,47.1c0.8,18.1,5,31,6.4,34.9
	c4.7,13.5,10.9,22.4,14.9,27.3"/>
<linearGradient id="SVGID_11_" gradientUnits="userSpaceOnUse" x1="692.9496" y1="791.3014" x2="692.9496" y2="6.5001">
	<stop  offset="2.162162e-02" style="stop-color:#EE3E7C"/>
	<stop  offset="7.640468e-02" style="stop-color:#E5407F"/>
	<stop  offset="0.3748" style="stop-color:#B64A8F"/>
	<stop  offset="0.639" style="stop-color:#93529B"/>
	<stop  offset="0.8564" style="stop-color:#7F56A2"/>
	<stop  offset="1" style="stop-color:#7758A5"/>
</linearGradient>
<path class="st10" d="M798.5,7c-20.2,0.1-89.5,11.6-130,76c-67.9,107.9-83.1,261.9-83.1,305.4c0,58.8,17.2,61.9,20.5,63.8
	c8.7,4.9,16.2,3,21.5,1.5c7.1-2,11.6-5.3,28.4-19.8c14.1-12.1,21.1-18.2,29.3-25.8c14.7-13.7,15.9-15.7,27.4-25.8
	c9.6-8.5,17.1-14.4,26.4-19.8c14.3-8.3,19.7-7.6,23.5-6.1c1.8,0.7,10.5,4.3,13.7,15.2c2.7,9.3-0.3,17.5-3.9,36.5
	c-1.5,7.7-2.9,19.3-5.9,42.5c-2.5,19.8-4.7,37-4.9,59.3c-0.2,22.6-0.4,37.1,3.9,54.7c4.8,19.5,9.5,20.3,14.7,44.1
	c3.5,16.1,4.5,30.1,4.9,36.5c1,16.1,0.4,28.5,0,36.5c-1.4,27.1-4.6,29.4-3.9,47.1c0.7,18.1,4.6,31,5.9,34.9
	c4.3,13.5,10,22.4,13.7,27.3"/>
<linearGradient id="SVGID_12_" gradientUnits="userSpaceOnUse" x1="702.2054" y1="791.2852" x2="702.2054" y2="6.5001">
	<stop  offset="2.162162e-02" style="stop-color:#EE3E7C"/>
	<stop  offset="7.640468e-02" style="stop-color:#E5407F"/>
	<stop  offset="0.3748" style="stop-color:#B64A8F"/>
	<stop  offset="0.639" style="stop-color:#93529B"/>
	<stop  offset="0.8564" style="stop-color:#7F56A2"/>
	<stop  offset="1" style="stop-color:#7758A5"/>
</linearGradient>
<path class="st11" d="M798.7,7C780.3,7.1,717,18.6,680,83c-62,107.9-75.9,261.9-75.9,305.4c0,58.8,15.7,61.9,18.7,63.8
	c7.9,4.9,14.8,3,19.6,1.5c6.5-2,10.6-5.3,25.9-19.8c12.8-12.1,19.3-18.2,26.8-25.8c13.4-13.7,14.5-15.7,25-25.8
	c8.8-8.5,15.7-14.4,24.1-19.8c13.1-8.3,18-7.6,21.4-6.1c1.7,0.7,9.5,4.3,12.5,15.2c2.5,9.3-0.3,17.5-3.6,36.5
	c-1.4,7.7-2.7,19.3-5.4,42.5c-2.3,19.8-4.3,37-4.5,59.3c-0.2,22.6-0.3,37.1,3.6,54.7c4.3,19.5,8.6,20.3,13.4,44.1
	c3.2,16.1,4.1,30.1,4.5,36.5c1,16.1,0.4,28.5,0,36.5c-1.3,27.1-4.2,29.4-3.6,47.1c0.6,18.1,4.2,31,5.4,34.9
	c4,13.5,9.1,22.4,12.5,27.3"/>
<linearGradient id="SVGID_13_" gradientUnits="userSpaceOnUse" x1="714.2132" y1="791.2612" x2="714.2132" y2="6.5001">
	<stop  offset="2.162162e-02" style="stop-color:#EE3E7C"/>
	<stop  offset="7.640468e-02" style="stop-color:#E5407F"/>
	<stop  offset="0.3748" style="stop-color:#B64A8F"/>
	<stop  offset="0.639" style="stop-color:#93529B"/>
	<stop  offset="0.8564" style="stop-color:#7F56A2"/>
	<stop  offset="1" style="stop-color:#7758A5"/>
</linearGradient>
<path class="st12" d="M798.9,7C782.7,7.1,727,18.6,694.5,83c-54.5,107.9-66.7,261.9-66.7,305.4c0,58.8,13.8,61.9,16.5,63.8
	c7,4.9,13,3,17.3,1.5c5.7-2,9.3-5.3,22.8-19.8c11.3-12.1,16.9-18.2,23.6-25.8c11.8-13.7,12.8-15.7,22-25.8
	c7.7-8.5,13.8-14.4,21.2-19.8c11.5-8.3,15.8-7.6,18.8-6.1c1.5,0.7,8.4,4.3,11,15.2c2.2,9.3-0.2,17.5-3.1,36.5
	c-1.2,7.7-2.4,19.3-4.7,42.5c-2,19.8-3.7,37-3.9,59.3c-0.2,22.6-0.3,37.1,3.1,54.7c3.8,19.5,7.6,20.3,11.8,44.1
	c2.8,16.1,3.6,30.1,3.9,36.5c0.8,16.1,0.3,28.5,0,36.5c-1.2,27.1-3.7,29.4-3.1,47.1c0.6,18.1,3.7,31,4.7,34.9
	c3.5,13.5,8,22.4,11,27.3"/>
<linearGradient id="SVGID_14_" gradientUnits="userSpaceOnUse" x1="725.0708" y1="791.2344" x2="725.0708" y2="6.5001">
	<stop  offset="2.162162e-02" style="stop-color:#EE3E7C"/>
	<stop  offset="7.640468e-02" style="stop-color:#E5407F"/>
	<stop  offset="0.3748" style="stop-color:#B64A8F"/>
	<stop  offset="0.639" style="stop-color:#93529B"/>
	<stop  offset="0.8564" style="stop-color:#7F56A2"/>
	<stop  offset="1" style="stop-color:#7758A5"/>
</linearGradient>
<path class="st13" d="M799.1,7c-14.1,0.1-62.8,11.6-91.2,76c-47.7,107.9-58.3,261.9-58.3,305.4c0,58.8,12,61.9,14.4,63.8
	c6.1,4.9,11.4,3,15.1,1.5c5-2,8.1-5.3,19.9-19.8c9.9-12.1,14.8-18.2,20.6-25.8c10.3-13.7,11.2-15.7,19.2-25.8
	c6.7-8.5,12-14.4,18.5-19.8c10.1-8.3,13.8-7.6,16.5-6.1c1.3,0.7,7.3,4.3,9.6,15.2c1.9,9.3-0.2,17.5-2.7,36.5
	c-1,7.7-2.1,19.3-4.1,42.5c-1.8,19.8-3.3,37-3.4,59.3c-0.2,22.6-0.3,37.1,2.7,54.7c3.3,19.5,6.6,20.3,10.3,44.1
	c2.5,16.1,3.1,30.1,3.4,36.5c0.7,16.1,0.3,28.5,0,36.5c-1,27.1-3.2,29.4-2.7,47.1c0.5,18.1,3.2,31,4.1,34.9c3,13.5,7,22.4,9.6,27.3"
	/>
<linearGradient id="SVGID_15_" gradientUnits="userSpaceOnUse" x1="737.3298" y1="791.1971" x2="737.3298" y2="6.5001">
	<stop  offset="2.162162e-02" style="stop-color:#EE3E7C"/>
	<stop  offset="7.640468e-02" style="stop-color:#E5407F"/>
	<stop  offset="0.3748" style="stop-color:#B64A8F"/>
	<stop  offset="0.639" style="stop-color:#93529B"/>
	<stop  offset="0.8564" style="stop-color:#7F56A2"/>
	<stop  offset="1" style="stop-color:#7758A5"/>
</linearGradient>
<path class="st14" d="M799.4,7c-11.8,0.1-52.5,11.6-76.3,76c-39.9,107.9-48.7,261.9-48.8,305.4c0,58.8,10.1,61.9,12,63.8
	c5.1,4.9,9.5,3,12.6,1.5c4.2-2,6.8-5.3,16.6-19.8c8.2-12.1,12.4-18.2,17.2-25.8c8.6-13.7,9.3-15.7,16.1-25.8
	c5.6-8.5,10.1-14.4,15.5-19.8c8.4-8.3,11.6-7.6,13.8-6.1c1.1,0.7,6.1,4.3,8,15.2c1.6,9.3-0.2,17.5-2.3,36.5
	c-0.9,7.7-1.7,19.3-3.4,42.5c-1.5,19.8-2.7,37-2.9,59.3c-0.1,22.6-0.2,37.1,2.3,54.7c2.8,19.5,5.6,20.3,8.6,44.1
	c2.1,16.1,2.6,30.1,2.9,36.5c0.6,16.1,0.2,28.5,0,36.5c-0.8,27.1-2.7,29.4-2.3,47.1c0.4,18.1,2.7,31,3.4,34.9
	c2.5,13.5,5.9,22.4,8,27.3"/>
<linearGradient id="SVGID_16_" gradientUnits="userSpaceOnUse" x1="749.6847" y1="791.1725" x2="749.6847" y2="6.5001">
	<stop  offset="2.162162e-02" style="stop-color:#EE3E7C"/>
	<stop  offset="7.640468e-02" style="stop-color:#E5407F"/>
	<stop  offset="0.3748" style="stop-color:#B64A8F"/>
	<stop  offset="0.639" style="stop-color:#93529B"/>
	<stop  offset="0.8564" style="stop-color:#7F56A2"/>
	<stop  offset="1" style="stop-color:#7758A5"/>
</linearGradient>
<path class="st15" d="M799.6,7c-9.5,0.1-42.3,11.6-61.5,76c-32.1,107.9-39.3,261.9-39.3,305.4c0,58.8,8.1,61.9,9.7,63.8
	c4.1,4.9,7.7,3,10.2,1.5c3.4-2,5.5-5.3,13.4-19.8c6.6-12.1,10-18.2,13.9-25.8c6.9-13.7,7.5-15.7,12.9-25.8
	c4.5-8.5,8.1-14.4,12.5-19.8c6.8-8.3,9.3-7.6,11.1-6.1c0.9,0.7,4.9,4.3,6.5,15.2c1.3,9.3-0.1,17.5-1.8,36.5
	c-0.7,7.7-1.4,19.3-2.8,42.5c-1.2,19.8-2.2,37-2.3,59.3c-0.1,22.6-0.2,37.1,1.8,54.7c2.2,19.5,4.5,20.3,6.9,44.1
	c1.7,16.1,2.1,30.1,2.3,36.5c0.5,16.1,0.2,28.5,0,36.5c-0.7,27.1-2.2,29.4-1.8,47.1c0.3,18.1,2.2,31,2.8,34.9
	c2,13.5,4.7,22.4,6.5,27.3"/>
<linearGradient id="SVGID_17_" gradientUnits="userSpaceOnUse" x1="761.5904" y1="791.1375" x2="761.5904" y2="6.5001">
	<stop  offset="2.162162e-02" style="stop-color:#EE3E7C"/>
	<stop  offset="7.640468e-02" style="stop-color:#E5407F"/>
	<stop  offset="0.3748" style="stop-color:#B64A8F"/>
	<stop  offset="0.639" style="stop-color:#93529B"/>
	<stop  offset="0.8564" style="stop-color:#7F56A2"/>
	<stop  offset="1" style="stop-color:#7758A5"/>
</linearGradient>
<path class="st16" d="M799.8,7c-7.3,0.1-32.4,11.6-47.1,76c-24.6,107.9-30.1,261.9-30.1,305.4c0,58.8,6.2,61.9,7.4,63.8
	c3.1,4.9,5.9,3,7.8,1.5c2.6-2,4.2-5.3,10.3-19.8c5.1-12.1,7.6-18.2,10.6-25.8c5.3-13.7,5.8-15.7,9.9-25.8c3.5-8.5,6.2-14.4,9.6-19.8
	c5.2-8.3,7.1-7.6,8.5-6.1c0.7,0.7,3.8,4.3,5,15.2c1,9.3-0.1,17.5-1.4,36.5c-0.5,7.7-1.1,19.3-2.1,42.5c-0.9,19.8-1.7,37-1.8,59.3
	c-0.1,22.6-0.1,37.1,1.4,54.7c1.7,19.5,3.4,20.3,5.3,44.1c1.3,16.1,1.6,30.1,1.8,36.5c0.4,16.1,0.2,28.5,0,36.5
	c-0.5,27.1-1.7,29.4-1.4,47.1c0.3,18.1,1.7,31,2.1,34.9c1.6,13.5,3.6,22.4,5,27.3"/>
<linearGradient id="SVGID_18_" gradientUnits="userSpaceOnUse" x1="774.4959" y1="791.0904" x2="774.4959" y2="6.5002">
	<stop  offset="2.162162e-02" style="stop-color:#EE3E7C"/>
	<stop  offset="7.640468e-02" style="stop-color:#E5407F"/>
	<stop  offset="0.3748" style="stop-color:#B64A8F"/>
	<stop  offset="0.639" style="stop-color:#93529B"/>
	<stop  offset="0.8564" style="stop-color:#7F56A2"/>
	<stop  offset="1" style="stop-color:#7758A5"/>
</linearGradient>
<path class="st17" d="M800,7c-4.9,0.1-21.7,11.6-31.5,76c-16.5,107.9-20.1,261.9-20.1,305.4c0,58.8,4.2,61.9,5,63.8
	c2.1,4.9,3.9,3,5.2,1.5c1.7-2,2.8-5.3,6.9-19.8c3.4-12.1,5.1-18.2,7.1-25.8c3.6-13.7,3.9-15.7,6.6-25.8c2.3-8.5,4.2-14.4,6.4-19.8
	c3.5-8.3,4.8-7.6,5.7-6.1c0.4,0.7,2.5,4.3,3.3,15.2c0.7,9.3-0.1,17.5-0.9,36.5c-0.4,7.7-0.7,19.3-1.4,42.5
	c-0.6,19.8-1.1,37-1.2,59.3c-0.1,22.6-0.1,37.1,0.9,54.7c1.2,19.5,2.3,20.3,3.6,44.1c0.9,16.1,1.1,30.1,1.2,36.5
	c0.3,16.1,0.1,28.5,0,36.5c-0.3,27.1-1.1,29.4-0.9,47.1c0.2,18.1,1.1,31,1.4,34.9c1,13.5,2.4,22.4,3.3,27.3"/>
<linearGradient id="SVGID_19_" gradientUnits="userSpaceOnUse" x1="787.4487" y1="791.0508" x2="787.4487" y2="6.5005">
	<stop  offset="2.162162e-02" style="stop-color:#EE3E7C"/>
	<stop  offset="7.640468e-02" style="stop-color:#E5407F"/>
	<stop  offset="0.3748" style="stop-color:#B64A8F"/>
	<stop  offset="0.639" style="stop-color:#93529B"/>
	<stop  offset="0.8564" style="stop-color:#7F56A2"/>
	<stop  offset="1" style="stop-color:#7758A5"/>
</linearGradient>
<path class="st18" d="M800.3,7c-2.4,0.1-10.8,11.6-15.8,76c-8.2,107.9-10.1,261.9-10.1,305.4c0,58.8,2.1,61.9,2.5,63.8
	c1.1,4.9,2,3,2.6,1.5c0.9-2,1.4-5.3,3.4-19.8c1.7-12.1,2.6-18.2,3.6-25.8c1.8-13.7,1.9-15.7,3.3-25.8c1.2-8.5,2.1-14.4,3.2-19.8
	c1.7-8.3,2.4-7.6,2.8-6.1c0.2,0.7,1.3,4.3,1.7,15.2c0.3,9.3,0,17.5-0.5,36.5c-0.2,7.7-0.4,19.3-0.7,42.5c-0.3,19.8-0.6,37-0.6,59.3
	c0,22.6,0,37.1,0.5,54.7c0.6,19.5,1.1,20.3,1.8,44.1c0.4,16.1,0.5,30.1,0.6,36.5c0.1,16.1,0.1,28.5,0,36.5
	c-0.2,27.1-0.6,29.4-0.5,47.1c0.1,18.1,0.6,31,0.7,34.9c0.5,13.5,1.2,22.4,1.7,27.3"/>
</svg>
