<?xml version="1.0" encoding="utf-8"?>
<!-- Generator: Adobe Illustrator 21.0.0, SVG Export Plug-In . SVG Version: 6.00 Build 0)  -->
<svg version="1.1" xmlns="http://www.w3.org/2000/svg" xmlns:xlink="http://www.w3.org/1999/xlink" x="0px" y="0px"
	 viewBox="0 0 1045.4 186" style="enable-background:new 0 0 1045.4 186;" xml:space="preserve">
<style type="text/css">
	.st0{display:none;}
	.st1{display:inline;fill:#192B33;}
	.st2{display:inline;fill:#6F828A;}
	.st3{display:inline;fill:#FF0000;}
	.st4{display:inline;fill:#0000FF;}
	.st5{display:inline;fill:#008000;}
	.st6{display:inline;}
	.st7{display:inline;fill:#FFFFFF;stroke:#000000;stroke-miterlimit:10;}
	.st8{fill:#333333;}
</style>
<g id="Слой_4" class="st0">
	<polyline class="st1" points="1162.5,-104 1162.5,696 -117.5,696 -117.5,-104 	"/>
</g>
<g id="Слой_13" class="st0">
	<polyline class="st2" points="1162.5,-104 1162.5,696 -117.5,696 -117.5,-104 	"/>
</g>
<g id="Слой_14" class="st0">
	<polyline class="st3" points="1162.5,-104 1162.5,696 -117.5,696 -117.5,-104 	"/>
</g>
<g id="Слой_16" class="st0">
	<polyline class="st4" points="1162.5,-104 1162.5,696 -117.5,696 -117.5,-104 	"/>
</g>
<g id="Слой_17" class="st0">
	<polyline class="st5" points="1162.5,-104 1162.5,696 -117.5,696 -117.5,-104 	"/>
</g>
<g id="Слой_20">
</g>
<g id="Слой_8">
</g>
<g id="Слой_7">
</g>
<g id="Слой_9">
</g>
<g id="Слой_19">
</g>
<g id="Слой_11">
</g>
<g id="Слой_18">
</g>
<g id="Слой_15" class="st0">
	<path class="st6" d="M461.1,439.5c3.7-0.3,10.3,1,14.4,3.4c-1.4,0.2-2.1,2.6-2.9,3.5c-1.2,1.4-2.5,2.4-4.2,3.2
		c-3.7,1.7-6.6-1.1-9-3.5c0.8,0,2.9-1.3,3.5-1.9c1-0.9,1.2-2.8,0.4-3.9c-0.1-0.1,0,0.1,0,0.2"/>
	<path class="st6" d="M569.7,441.5c2.6-0.6,5.4-1.9,8.1-2.1c2.2-0.1,5.8-0.3,7.7-0.3c-0.2,1.3-1,3-1.4,4.3c-0.4,1.2-0.7,2.6-1.4,3.6
		c-1.6,2.3-4.2,2.6-6.8,2.4c-0.6,0-2.4-0.5-2.5-1.1c0-0.3,0.5-1,0.6-1.3c0.2-0.5,0.4-1,0.5-1.6c0.2-1,0.3-2.1-0.4-3
		c-0.8-1-1.6-0.7-2.7-0.8"/>
</g>
<g id="Слой_12" class="st0">
	<path class="st7" d="M478.2,446.9c0.5-1.5,0.7-2.8-1-3.7c-1.7-0.9-2.7,0.1-3.4,1.5c-0.4,0.7-0.7,1.4-1.2,2
		c-3.5,4.4-9.1,4.4-13.4-0.5c1-0.4,1.6-0.6,2.2-0.8c1.4-0.6,2.7-1.2,2.6-3c-0.2-1.9-1.5-2.8-3.2-3.1c-1.2-0.3-2.5-0.4-3.8-0.5
		c-3.4-0.2-4.7,1-4.5,4.4c0.2,3.6,1.9,6.4,4.5,8.7C463.7,457.7,475.6,454.9,478.2,446.9"/>
	<path class="st7" d="M578.9,454.9c-7.5,1.4-14.5-3.6-15.2-11.2c2.1-0.6,4.3-1.5,6.6-2c1.8-0.4,3.8,0.1,4.4,1.9c0.4,1-0.6,2.5-1,3.8
		c-0.1,0.4-0.4,0.8-0.6,1.2c7.4,2.5,10.5,0.1,11.9-9.1c3.6-1,4.3-0.6,4.6,2.7C590.1,448.3,585.4,453.7,578.9,454.9z"/>
</g>
<g id="Слой_10">
	<g>
		<path class="st8" d="M6.5,141L36,53.7h23.9L89.3,141H66.8l-5.4-17.8H33.9L28.5,141H6.5z M56.5,107.3l-8.9-28.8l-8.9,28.8H56.5z"/>
		<path class="st8" d="M188.9,81.3c0,4.1-0.6,7.9-1.9,11.6c-1.3,3.7-3.1,6.7-5.6,9.2c-1.5,1.5-3.1,2.9-4.9,4.2
			c-1.8,1.3-3.7,2.4-5.9,3.3c-2.1,0.9-4.5,1.6-7,2.1c-2.5,0.5-5.3,0.8-8.5,0.8h-11.5V141h-21.9V53.7h33.9c5,0,9.4,0.5,13,1.4
			c3.7,0.9,7,2.4,9.9,4.4c3.3,2.2,5.8,5.1,7.6,8.8C188,71.9,188.9,76.2,188.9,81.3z M166.4,81.8c0-2.5-0.6-4.6-1.8-6.4
			c-1.2-1.8-2.6-3-4.2-3.7c-2.1-0.9-4.1-1.4-5.9-1.6c-1.9-0.1-4.5-0.2-7.7-0.2h-3.1v26.1h1.5c2.1,0,4,0,5.9-0.1
			c1.8,0,3.4-0.2,4.8-0.4c1.2-0.2,2.4-0.6,3.7-1.1c1.3-0.6,2.3-1.2,3-1.9c1.5-1.4,2.5-2.9,3-4.5C166.1,86.6,166.4,84.5,166.4,81.8z"
			/>
		<path class="st8" d="M218.9,141V53.7h59v16.6h-37.2v15.3H275v16.6h-34.3v22h37.2V141H218.9z"/>
		<path class="st8" d="M339.8,142.6c-6.7,0-12.5-0.6-17.6-1.9c-5.1-1.3-9.8-2.9-14.1-4.8v-20.7h2c4.4,3.7,9.2,6.6,14.5,8.6
			s10.4,3,15.4,3c1.3,0,2.9-0.1,5-0.4c2.1-0.3,3.7-0.7,5-1.3c1.5-0.7,2.8-1.6,3.9-2.8c1.1-1.2,1.6-2.8,1.6-4.7c0-2.2-0.9-4-2.6-5.3
			c-1.7-1.4-3.8-2.4-6.2-3c-3-0.8-6.1-1.5-9.5-2.2c-3.4-0.7-6.5-1.6-9.5-2.6c-6.8-2.4-11.6-5.6-14.5-9.6c-2.9-4-4.4-9.1-4.4-15.1
			c0-8.2,3.5-14.8,10.4-19.8c6.9-5.1,15.5-7.6,25.9-7.6c5.2,0,10.4,0.5,15.5,1.6c5.1,1.1,9.7,2.5,13.8,4.3v19.9h-1.9
			c-3.2-2.8-7.2-5.1-11.9-7C355.8,69,351,68,346,68c-1.9,0-3.6,0.1-5.2,0.4c-1.5,0.3-3.1,0.8-4.8,1.6c-1.4,0.6-2.5,1.6-3.5,2.8
			s-1.5,2.6-1.5,4.1c0,2.2,0.8,4,2.4,5.3c1.6,1.3,4.6,2.5,9.2,3.5c2.9,0.7,5.8,1.3,8.5,1.9c2.7,0.6,5.6,1.5,8.7,2.6
			c6.1,2.2,10.6,5.1,13.5,8.8c2.9,3.7,4.4,8.6,4.4,14.6c0,8.7-3.4,15.6-10.2,20.9C360.6,139.9,351.4,142.6,339.8,142.6z"/>
		<path class="st8" d="M728.4,141h-58.2V53.7H692v70.6h36.3V141z"/>
		<path class="st8" d="M758.4,141l29.5-87.2h23.9l29.5,87.2h-22.6l-5.4-17.8h-27.4l-5.4,17.8H758.4z M808.4,107.3l-8.9-28.8
			l-8.9,28.8H808.4z"/>
		<path class="st8" d="M941,114.3c0,4.3-0.8,8.1-2.5,11.4c-1.6,3.3-3.8,6-6.6,8.1c-3.3,2.6-6.9,4.4-10.8,5.5
			c-3.9,1.1-8.9,1.6-15,1.6h-34.9V53.7H902c6.4,0,11.3,0.2,14.6,0.7c3.3,0.5,6.4,1.5,9.3,3.1c3.1,1.7,5.5,3.9,7,6.7
			c1.5,2.8,2.3,6.1,2.3,9.7c0,4.3-1.1,8-3.2,11.4c-2.1,3.3-5.1,5.8-8.8,7.3v0.5c5.4,1.1,9.7,3.4,12.9,6.9
			C939.4,103.6,941,108.3,941,114.3z M912.9,78.4c0-1.4-0.4-2.9-1.1-4.3c-0.7-1.5-1.8-2.6-3.4-3.2c-1.4-0.6-3.2-1-5.1-1
			c-2-0.1-4.9-0.1-8.8-0.1H893v18.5h2.8c3.8,0,6.4,0,7.9-0.1c1.5-0.1,3.1-0.5,4.7-1.2c1.8-0.8,3-2,3.6-3.4
			C912.6,82,912.9,80.3,912.9,78.4z M918.4,113.9c0-2.7-0.5-4.8-1.6-6.3c-1.1-1.5-2.7-2.7-4.9-3.5c-1.3-0.5-3.2-0.8-5.5-0.8
			c-2.3-0.1-5.4-0.1-9.3-0.1h-4V125h1.2c5.7,0,9.6,0,11.8-0.1c2.2-0.1,4.4-0.6,6.7-1.6c2-0.9,3.4-2.1,4.4-3.8
			C918,117.8,918.4,116,918.4,113.9z"/>
		<path class="st8" d="M1000.7,142.6c-6.7,0-12.5-0.6-17.6-1.9c-5.1-1.3-9.8-2.9-14.1-4.8v-20.7h2c4.4,3.7,9.2,6.6,14.5,8.6
			s10.4,3,15.4,3c1.3,0,2.9-0.1,5-0.4c2.1-0.3,3.7-0.7,5-1.3c1.5-0.7,2.8-1.6,3.9-2.8c1.1-1.2,1.6-2.8,1.6-4.7c0-2.2-0.9-4-2.6-5.3
			c-1.7-1.4-3.8-2.4-6.2-3c-3-0.8-6.1-1.5-9.5-2.2c-3.4-0.7-6.5-1.6-9.5-2.6c-6.8-2.4-11.6-5.6-14.5-9.6c-2.9-4-4.4-9.1-4.4-15.1
			c0-8.2,3.5-14.8,10.4-19.8c6.9-5.1,15.5-7.6,25.9-7.6c5.2,0,10.4,0.5,15.5,1.6c5.1,1.1,9.7,2.5,13.8,4.3v19.9h-1.9
			c-3.2-2.8-7.2-5.1-11.9-7c-4.7-1.9-9.5-2.9-14.4-2.9c-1.9,0-3.6,0.1-5.2,0.4c-1.5,0.3-3.1,0.8-4.8,1.6c-1.4,0.6-2.5,1.6-3.5,2.8
			s-1.5,2.6-1.5,4.1c0,2.2,0.8,4,2.4,5.3c1.6,1.3,4.6,2.5,9.2,3.5c2.9,0.7,5.8,1.3,8.5,1.9c2.7,0.6,5.6,1.5,8.7,2.6
			c6.1,2.2,10.6,5.1,13.5,8.8c2.9,3.7,4.4,8.6,4.4,14.6c0,8.7-3.4,15.6-10.2,20.9C1021.5,139.9,1012.3,142.6,1000.7,142.6z"/>
	</g>
	<path class="st8" d="M451.3,58.6c-1.2-0.5-2.5-1.1-3.7-1.5c-3.7-1.4-7.5-2.7-11.2-4.3c-5.2-2.3-7.8-12.4-4.4-17
		c1.5-2.1,3.7-3,6.2-3.2c12.1-0.8,24.3-1.1,36.3,1.3c2.3,0.5,4.7,0.6,7.6,1c-5-4.4-15.4-6.7-48.6-10.7c1.9-5.5,4.3-10.4,9.1-13.7
		c3.1-2.2,6.6-2.3,10-0.7c4.2,2,8.4,4,12.5,6c8.3,4.1,16.6,8.2,25,12.2c2.6,1.3,5.2,2.7,7.9,3.4c4.1,1.1,6.8,3.1,7.1,7.6
		c0.1,0.9,1.1,1.8,2.1,3.4c1.6-2.7,2.8-4.7,3.7-6.4c1.1,2.3,2.4,4.7,3.6,7.2c-11.8,6.2-19.3,16.7-25.3,28.7c2.5,2.3,4.8,4.4,7,6.5
		c-0.1,0.2-0.3,0.4-0.4,0.6c-1.5-0.7-3.1-1.4-4.6-2.1c-4.1-1.7-8.3-2.3-12.6-0.7c-4.7,1.7-7,5.4-5.5,10.1c1.1,3.6,3.1,6.9,5,10.2
		c1.4,2.4,3.4,4.6,5.4,7.3c-5.2-0.2-7.2-4.2-10.1-7.5c-6.7,8.8-10.5,28.7-11.1,31.5c-0.7-1.3-0.1-17.8,8.5-35.3
		c-1-1.5-2-2.9-2.9-4.3c-4.3-6.5-1.3-14.7,6.3-16.7c1.8-0.5,3.8-0.5,5.7-0.8c1.2-0.2,2.8-0.2,3.6-0.9c1.1-1,2-2.5,2.2-3.9
		c0.2-1.8-1.3-2.9-3-3.1c-2.2-0.2-4.4-0.3-6.7-0.1c-6.5,0.3-13.1,1.1-19.6,1.1c-4.9,0-9.7-1.2-13.9-4.6c2.8,0.2,5.6,0.4,8.4,0.6
		C451.1,59.4,451.2,59,451.3,58.6z M459.1,44.5c1-0.4,1.6-0.6,2.2-0.8c1.4-0.6,2.7-1.2,2.6-3c-0.2-1.9-1.5-2.8-3.2-3.1
		c-1.2-0.3-2.5-0.4-3.8-0.5c-3.4-0.2-4.7,1-4.5,4.4c0.2,3.6,1.9,6.4,4.5,8.7c6.8,5.8,18.6,3,21.3-5c0.5-1.5,0.7-2.8-1-3.7
		c-1.7-0.9-2.7,0.1-3.4,1.5c-0.4,0.7-0.7,1.4-1.2,2C469.1,49.4,463.5,49.4,459.1,44.5z"/>
	<path class="st8" d="M549.9,171.8c16.9-5.7,26.4-17.4,26.8-32c-16.7,2.2-29-2.8-43.8-4c-6.2-0.5-14.7,0.8-21,1.7
		c-5.2,0.7-10.3,2.1-15.5,2.9c-6.2,1-12.3,0.9-17.8-3c8.4,2.2,16.5,0,24.6-1.6c4.4-0.9,8.8-1.7,13.2-2.5c10.6-1.9,21-0.1,31.5,1.4
		c5.4,0.8,10.7,2,16.1,2.4c3.6,0.3,7.3-0.3,10.8-0.8c2.7-0.4,3.7,0,4.5,2.7c1,3.7,0,29.8-35.2,36.1c-19.2,3.9-39,1.2-53.6-7.7
		C490.5,167.5,517.6,180.5,549.9,171.8z"/>
	<path class="st8" d="M564.9,86c-1-0.4-1.6-0.7-2.6-1.2c-1.3,2.3-2.2,4.9-3.9,6.9c-1.7,2-4,3.7-6.3,5c-2.3,1.4-4.9,2.4-7.5,3.2
		c-2.5,0.8-5.1,1.2-7.6,1.8c-1.6-2.8-0.6-4.8,0.5-6.4c5.6-7.8,13.4-12.7,22.7-14.9C564.4,79.5,565.4,80.9,564.9,86z"/>
	<path class="st8" d="M508.3,105.5c-6.8-0.5-11.5-3-16.2-5.7c-4.9-2.8-7.9-6.9-8.9-12.7c-1.3,0.3-2.2,0.6-3.2,0.8
		c-0.5-4.6,0.9-6.3,4.7-5.2c9.1,2.9,16.6,8.1,21.8,16.3C507.4,100.5,507.5,102.6,508.3,105.5z"/>
	<path class="st8" d="M608.9,35.2c-5.5-0.9-11-2.2-16.5-2.9c-9.8-1.2-19.4,0.4-29,2.4c-1.1,0.2-2.2,0.2-3.3,0.3c0-0.3-0.1-0.7-0.1-1
		c15.5-4.7,31.4-6.8,48.1-7.7c-1-2.1-1.6-3.6-2.4-4.9c-1-1.8-2.1-3.6-3.3-5.3c-5.6-7.4-10.7-7-16.1-3.6c-1.1,0.7-2.2,1.2-3.4,1.8
		C570.3,21,557.6,27.4,544,31.7c-3.1,1-5.2,3-6.4,6c-0.6,1.5-0.6,3.6-3.5,3.8c-1-1.9-2-3.9-2.9-5.7c-1.2,2.5-2.3,4.9-3.5,7.3
		c12.7,5.6,26.5,20,28.1,29.5c-3.3,2.2-7.5,3.2-10.8,7.5c3.3-1.4,5.5-2.7,7.9-3.3c3.4-0.8,6.9-1.7,10.3-1.4
		c7.1,0.7,10.5,7.2,7.7,13.8c-1.9,4.4-5.1,7.7-8.8,10.5c-1.4,1-2.8,2-4.5,3.2c4.4,0,8.7-1.9,12.3-4.9c7.1,9.9,10.6,25.5,12.1,30.8
		c0.4,0-1.6-22.7-9.7-33.2c2.2-2.5,3.9-5.4,4.8-8.5c2.3-8.2-1.9-14.7-10.3-16.1c-1.6-0.3-3.3-0.2-4.7-0.8c-1.9-0.7-3.2-2.3-3-4.5
		c0.2-2,1.9-2.9,3.7-3.2c1.2-0.2,2.5,0,3.8,0c5.1,0.3,10.2,0.5,15.3,0.4c6.2-0.1,12.4-0.6,19.1-4.6c-3.1,0-5.2,0-7.2,0
		c3.2-1,6.3-3.1,9.6-4c5.4-1.4,7.3-5.1,7.8-10c0.2-1.9,0.3-3.7,0.3-5.7C611.8,36.8,611.1,35.6,608.9,35.2z M578.9,53.1
		c-7.5,1.4-14.5-3.6-15.2-11.2c2.1-0.6,4.3-1.5,6.6-2c1.8-0.4,3.8,0.1,4.4,1.9c0.4,1-0.6,2.5-1,3.8c-0.1,0.4-0.4,0.8-0.6,1.2
		c7.4,2.5,10.5,0.1,11.9-9.1c3.6-1,4.3-0.6,4.6,2.7C590.1,46.4,585.4,51.9,578.9,53.1z"/>
</g>
</svg>
