<?xml version="1.0" encoding="utf-8"?>
<!-- Generator: Adobe Illustrator 21.0.0, SVG Export Plug-In . SVG Version: 6.00 Build 0)  -->
<svg version="1.1" id="Layer_1" xmlns="http://www.w3.org/2000/svg" xmlns:xlink="http://www.w3.org/1999/xlink" x="0px" y="0px"
	 viewBox="0 0 149.2 172.2" style="enable-background:new 0 0 149.2 172.2;" xml:space="preserve">
<style type="text/css">
	.st0{fill:#FFFFFF;}
</style>
<path class="st0" d="M41.9,84.8L67,111.5L54.9,84.8H41.9z M74.6,115.8l14.1-31.1H60.5L74.6,115.8z M55,79.6l8.2-15.5H52.7L41.1,79.6
	C41.1,79.6,55,79.6,55,79.6z M82.2,111.5l25.1-26.8h-13L82.2,111.5z M60.8,79.6h27.5l-8.2-15.5h-11L60.8,79.6z M94.2,79.6h13.9
	L96.5,64.1H85.9L94.2,79.6z M99.8,60l15.5,20.6c0.4,0.5,0.6,1,0.5,1.7c0,0.6-0.3,1.2-0.7,1.6l-38.7,41.2c-0.5,0.5-1.1,0.8-1.9,0.8
	c-0.8,0-1.4-0.3-1.9-0.8L34,83.9c-0.4-0.5-0.7-1-0.7-1.6c0-0.6,0.1-1.2,0.5-1.7L49.3,60c0.5-0.7,1.2-1,2.1-1h46.4
	C98.7,59,99.4,59.3,99.8,60z"/>
<g>
	<defs>
		<circle id="SVGID_1_" cx="74.6" cy="86.1" r="74.6"/>
	</defs>
	<clipPath id="SVGID_2_">
		<use xlink:href="#SVGID_1_"  style="overflow:visible;"/>
	</clipPath>
	<g transform="matrix(1 0 0 1 0 0)" style="clip-path:url(#SVGID_2_);">
		
			<image style="overflow:visible;" width="412" height="624" xlink:href="../../../Pictures/Фото Гавриленко/main.jpg"  transform="matrix(0.3696 0 0 0.3696 -1.5546 -8.1936)">
		</image>
	</g>
</g>
</svg>
