<?xml version="1.0" encoding="utf-8"?>
<!-- Generator: Adobe Illustrator 21.0.0, SVG Export Plug-In . SVG Version: 6.00 Build 0)  -->
<svg version="1.1"
	 id="svg1055" xmlns:cc="http://creativecommons.org/ns#" xmlns:dc="http://purl.org/dc/elements/1.1/" xmlns:rdf="http://www.w3.org/1999/02/22-rdf-syntax-ns#" xmlns:svg="http://www.w3.org/2000/svg"
	 xmlns="http://www.w3.org/2000/svg" xmlns:xlink="http://www.w3.org/1999/xlink" x="0px" y="0px" viewBox="0 0 125.5 41.5"
	 style="enable-background:new 0 0 125.5 41.5;" xml:space="preserve">
<style type="text/css">
	.st0{fill:#FFFFFF;}
</style>
<g id="layer1" transform="translate(212.63212,14.975913)">
	<g id="layer1-6" transform="matrix(0.03326508,0,0,0.03326508,-213.06268,-34.551545)">
		<path id="path4147" class="st0" d="M579.3,1830.6c-63.1-9.8-92.8-29.1-92.8-60.2c0-24.4,37-37.8,53.7-19.4
			c13.4,14.8,49.7,19.6,148.9,19.6s135.5-4.8,148.9-19.6c10.5-11.6,33.6-11.1,44.9,1c21.4,23,0.1,57.5-43.2,69.8
			C783.2,1838,654.3,1842.3,579.3,1830.6z M807.1,1686.7c-16-6.5-28.5-26.4-25.7-41c3.3-17,21.1-32.4,37.5-32.4
			c15.5,0,38.2,20.4,38.2,34.4c0,15.9-12.1,33.5-26.4,38.4c-7.5,2.6-13.9,4.7-14.1,4.5C816.4,1690.5,812.1,1688.7,807.1,1686.7z
			 M561.9,1681.9c-110.4-11.5-167.7-37.1-167.7-74.8c0-31.2,34.2-44.3,55.5-21.4c21.3,22.9,106.1,36.3,230.5,36.3h81.3l-4.2,15.2
			c-2.3,8.4-3.1,19-1.8,23.7c1.3,4.7,3.5,12.4,4.8,17.1c2.4,8.4,0.5,8.6-80.8,8C633.9,1685.7,580.9,1683.8,561.9,1681.9z
			 M881.8,1657c1.5-11.1-0.1-21.9-4.7-31c-3.8-7.7-7-14.5-7-15.1c0-0.6,9.9-3.4,21.9-6.3c13.2-3.2,27-10.2,34.6-17.7
			c32.6-31.9,74.5,3.2,49.5,41.3c-12.5,19.1-28,26.7-89.5,43.7C880.6,1673.7,879.8,1671.4,881.8,1657z M570.1,1529.6
			c-20.8-9-26-34.2-10.3-49.9c8.1-8.1,14.4-8.6,113.1-8.6c187.2,0,298.3-16.9,329.2-50.1c16.6-17.8,32-18.9,47.5-3.4
			c9.2,9.2,10.7,13.8,8.6,26.9c-9.2,59-145.1,91.4-382.1,91.1C608.1,1535.5,579.9,1533.9,570.1,1529.6z M439.1,1524.2
			c-14.6-5.6-25.9-20.3-25.9-34.1c0-19.9,3.7-27.1,17.5-34.2c17.4-9,27.3-7.9,42.5,4.9c10,8.4,13.3,14.8,13.3,25.6
			C486.5,1510.6,459.7,1532,439.1,1524.2z M367.1,1498.2c-26.5-8.9-52.9-34.2-55.9-53.7c-2.1-13.2-0.6-17.7,8.6-26.9
			c15.5-15.5,31-14.4,47.5,3.5c7.4,8,17.9,15.9,23.2,17.5c10.8,3.3,12,6.9,4.9,14.1c-2.7,2.7-6.1,15.3-7.5,28.2l-2.7,23.3
			L367.1,1498.2z M794.6,1391.8c-13.2-5.7-23.6-22-23.6-36.9c0-4.4,5-14.1,11.2-21.3c14.1-16.8,34.6-18,52-3
			C865,1357.1,832.1,1408.1,794.6,1391.8z M538.2,1380.1c-118.7-8.7-223.3-29.9-269.2-54.7c-38.8-20.9-53.5-59.4-29.7-78.1
			c6.2-4.9,15.5-8.9,20.6-8.9c11.7,0,28.4,11.5,28.4,19.6c0,8.9,26.9,21.2,69,31.6c79.9,19.7,193.8,30.8,317.9,30.8h79.2l-3.5,9.7
			c-1.9,5.3-3.4,19.9-3.2,32.3l0.3,22.6l-80.1-0.6C623.8,1384,565.5,1382.1,538.2,1380.1L538.2,1380.1z M1013.7,1350.4
			c-10.7-4.3-18.6-16.9-18.6-29.6c0-15,18-28.8,50.7-38.9c17.2-5.3,33.7-12.6,36.6-16.2c24.5-30.5,39.1-34.8,57.2-16.7
			c30.4,30.4-3.1,71.8-76.9,95.2C1025.5,1355.9,1026.9,1355.7,1013.7,1350.4z M492.4,1215.2c-31.1-26.7,1.2-77.1,39.3-61.2
			c26.7,11.2,31.9,38.2,11.2,58.9C527.2,1228.6,508.9,1229.4,492.4,1215.2z M824.6,1210.6c-13.2-13.2-13.5-30-0.9-42.6
			c8.5-8.5,17.4-10.4,70-15.3c146.1-13.5,239.8-37.2,253.8-64.3c9.4-18.1,28.2-25,44.7-16.4c29.8,15.4,22.2,51.9-16.8,80.1
			c-36.7,26.6-151.1,53.5-273.9,64.4C833.5,1222.5,836.9,1222.8,824.6,1210.6z M361.5,1201.7c-59.3-10.3-119.3-27.1-146.8-41.1
			c-22.2-11.3-42.4-33.6-45.5-50.5c-7.8-41.5,38.7-59,59.6-22.4c12.4,21.8,71.3,40.8,166.6,54c73.4,10.2,70.4,9.3,65.3,18.9
			c-2.4,4.5-4.4,18.1-4.4,30.1v21.8l-18.3-0.3C427.9,1212,393.5,1207.3,361.5,1201.7z M546.8,1067.8c-10.7-0.9-46.5-3.7-79.7-6.2
			c-131.6-10-254.7-33.9-312.6-60.6c-59.9-27.6-83.8-77.6-47-98.2c16-9,32.8-3.2,43.5,14.9c4.9,8.3,16.3,18.9,25.3,23.5
			c40.6,20.7,136.2,40.7,258.4,53.9c86.1,9.4,317.6,13.1,418.1,6.7c73.2-4.6,197.8-18.4,222.5-24.6c9.7-2.4,10.3-1.4,10.3,16.2
			c0,10.3,2.8,24.1,6.2,30.6c3.4,6.5,4.8,12.6,3.2,13.6c-5.8,3.5-90.2,15.5-155.9,22.2C876.4,1066,595.7,1071.8,546.8,1067.8z
			 M1122,1020.9c-20.3-20.3-13-52.7,14.4-63.2c12.5-4.8,37.1,4.9,43.6,17.1C1200.2,1012.5,1151.9,1050.8,1122,1020.9z M686.3,902.2
			c-13.2-5.3-23.1-21.3-23.1-37.2c0-15.2,20-36.1,34.6-36.1c24.7,0,47,27.7,39,48.6c-4.8,12.6-24.5,29.1-34.3,28.7
			C698.7,906.1,691.4,904.3,686.3,902.2z M510.2,894.9c-58.9-3.1-176.1-15.1-228.4-23.4C81.1,839.8,1.3,796.9,14.3,727.6
			C25.8,666.4,172.9,619.9,430.5,596c80.1-7.4,349.6-10.2,439.6-4.6c327.1,20.6,495.7,72.2,495.6,151.8c0,16.8-14.3,42.2-31,55.2
			c-57.3,44.8-226.2,80.4-449.5,94.9c-37.9,2.5-81.5,4.5-97,4.5l-28.1,0v-31.7v-31.7l71.1-2.7c201.7-7.8,393.8-40.6,454.1-77.5
			l16.6-10.2l-11.6-9.1c-42.1-33.1-205.2-64.8-403.1-78.4c-80.7-5.5-315.5-5.5-398.7,0.1c-127.3,8.5-239.1,24.5-316.8,45.1
			c-41.6,11.1-94.8,34-94.8,40.9c0,6.3,51.6,29.3,91.1,40.5c84.1,24,243.7,43.9,389.4,48.6l81.9,2.6v31.7v31.7l-51.7-0.8
			C559.3,896.6,524.4,895.6,510.2,894.9L510.2,894.9z"/>
	</g>
	<g id="text825">
		<path id="path1631" class="st0" d="M-157.2,3.3c1.5,0,2.8,0.6,3.6,1.8c0.9,1.2,1.3,2.9,1.3,5c0,2.2-0.5,3.8-1.4,5
			c-0.9,1.2-2.1,1.8-3.7,1.8c-1.5,0-2.7-0.6-3.6-1.7h-0.2l-0.6,1.4h-2.7V-1.6h3.6v4.2c0,0.5,0,1.4-0.1,2.6h0.1
			C-160,4-158.8,3.3-157.2,3.3L-157.2,3.3z M-158.3,6.2c-0.9,0-1.5,0.3-1.9,0.8c-0.4,0.5-0.6,1.4-0.6,2.7v0.4c0,1.4,0.2,2.4,0.6,3
			c0.4,0.6,1.1,0.9,2,0.9c0.7,0,1.3-0.3,1.7-1c0.4-0.7,0.7-1.7,0.7-3c0-1.3-0.2-2.3-0.7-2.9C-157,6.5-157.6,6.2-158.3,6.2
			L-158.3,6.2z"/>
		<path id="path1633" class="st0" d="M-133.8,16.7h-4.6l-7.5-13h-0.1c0.1,2.3,0.2,3.9,0.2,4.9v8.1h-3.2V-0.5h4.6l7.4,12.8h0.1
			c-0.1-2.2-0.2-3.8-0.2-4.7v-8.1h3.3L-133.8,16.7z"/>
		<path id="path1635" class="st0" d="M-124.3,5.9c-0.8,0-1.4,0.2-1.8,0.7c-0.4,0.5-0.7,1.2-0.7,2h5c0-0.9-0.2-1.6-0.7-2
			C-123,6.1-123.6,5.9-124.3,5.9L-124.3,5.9z M-123.8,16.9c-2.1,0-3.8-0.6-4.9-1.7c-1.2-1.2-1.8-2.8-1.8-4.9c0-2.2,0.5-3.9,1.6-5.1
			c1.1-1.2,2.6-1.8,4.6-1.8c1.9,0,3.3,0.5,4.3,1.6c1,1.1,1.5,2.5,1.5,4.4V11h-8.4c0,1,0.3,1.8,0.9,2.4c0.6,0.6,1.4,0.9,2.4,0.9
			c0.8,0,1.5-0.1,2.2-0.2c0.7-0.2,1.4-0.4,2.2-0.8V16c-0.6,0.3-1.3,0.5-2,0.7C-121.9,16.8-122.8,16.9-123.8,16.9z"/>
		<path id="path1637" class="st0" d="M-106.4,12.8c0,1.3-0.5,2.4-1.4,3.1c-0.9,0.7-2.3,1.1-4.2,1.1c-1,0-1.8-0.1-2.4-0.2
			c-0.7-0.1-1.3-0.3-1.9-0.6v-3c0.7,0.3,1.4,0.6,2.2,0.8c0.8,0.2,1.6,0.3,2.2,0.3c1.3,0,1.9-0.4,1.9-1.1c0-0.3-0.1-0.5-0.3-0.7
			c-0.2-0.2-0.5-0.4-0.9-0.6c-0.4-0.2-1-0.5-1.7-0.8c-1-0.4-1.7-0.8-2.2-1.2c-0.5-0.4-0.8-0.8-1-1.2c-0.2-0.5-0.3-1-0.3-1.7
			c0-1.2,0.4-2.1,1.3-2.7c0.9-0.6,2.2-1,3.8-1c1.6,0,3.1,0.3,4.6,1l-1.1,2.6c-0.7-0.3-1.3-0.5-1.8-0.7c-0.6-0.2-1.2-0.3-1.7-0.3
			c-1.1,0-1.6,0.3-1.6,0.9c0,0.3,0.2,0.6,0.5,0.8c0.3,0.2,1.1,0.6,2.2,1c1,0.4,1.8,0.8,2.2,1.2s0.8,0.8,1.1,1.2
			C-106.5,11.6-106.4,12.1-106.4,12.8L-106.4,12.8z"/>
		<path id="path1639" class="st0" d="M-103.8,0.2c0-1.2,0.6-1.7,1.9-1.7c1.3,0,1.9,0.6,1.9,1.7c0,0.6-0.2,1-0.5,1.3
			c-0.3,0.3-0.8,0.5-1.5,0.5C-103.1,1.9-103.8,1.4-103.8,0.2z M-100,16.7h-3.6V3.6h3.6V16.7z"/>
		<path id="path1641" class="st0" d="M-87.2,12.8c0,1.3-0.5,2.4-1.4,3.1c-0.9,0.7-2.3,1.1-4.2,1.1c-1,0-1.8-0.1-2.4-0.2
			c-0.7-0.1-1.3-0.3-1.9-0.6v-3c0.7,0.3,1.4,0.6,2.2,0.8c0.8,0.2,1.6,0.3,2.2,0.3c1.3,0,1.9-0.4,1.9-1.1c0-0.3-0.1-0.5-0.3-0.7
			c-0.2-0.2-0.5-0.4-0.9-0.6c-0.4-0.2-1-0.5-1.7-0.8c-1-0.4-1.8-0.8-2.2-1.2c-0.5-0.4-0.8-0.8-1-1.2c-0.2-0.5-0.3-1-0.3-1.7
			c0-1.2,0.4-2.1,1.3-2.7c0.9-0.6,2.2-1,3.8-1c1.6,0,3.1,0.3,4.6,1l-1.1,2.6c-0.7-0.3-1.3-0.5-1.8-0.7C-90.8,6.1-91.4,6-92,6
			c-1.1,0-1.6,0.3-1.6,0.9c0,0.3,0.2,0.6,0.5,0.8c0.3,0.2,1.1,0.6,2.2,1c1,0.4,1.8,0.8,2.2,1.2s0.8,0.8,1.1,1.2
			C-87.3,11.6-87.2,12.1-87.2,12.8L-87.2,12.8z"/>
	</g>
</g>
</svg>
