<?xml version="1.0" encoding="UTF-8" standalone="no"?>
<svg
   xmlns:dc="http://purl.org/dc/elements/1.1/"
   xmlns:cc="http://creativecommons.org/ns#"
   xmlns:rdf="http://www.w3.org/1999/02/22-rdf-syntax-ns#"
   xmlns:svg="http://www.w3.org/2000/svg"
   xmlns="http://www.w3.org/2000/svg"
   id="svg1055"
   version="1.1"
   viewBox="0 0 44.264236 14.654207"
   height="14.654207mm"
   width="44.264236mm">
  <defs
     id="defs1049" />
  <metadata
     id="metadata1052">
    <rdf:RDF>
      <cc:Work
         rdf:about="">
        <dc:format>image/svg+xml</dc:format>
        <dc:type
           rdf:resource="http://purl.org/dc/dcmitype/StillImage" />
        <dc:title></dc:title>
      </cc:Work>
    </rdf:RDF>
  </metadata>
  <g
     transform="translate(212.63212,14.975913)"
     id="layer1">
    <g
       style="display:inline;fill:#444444;fill-opacity:1"
       id="layer1-6"
       transform="matrix(0.03326508,0,0,0.03326508,-213.06268,-34.551545)">
      <path
         style="fill:#444444;fill-opacity:1"
         d="m 212.74039,1026.6737 c -22.26036,-3.4589 -32.73358,-10.2497 -32.73358,-21.2245 0,-8.60969 13.06825,-13.33118 18.94001,-6.84295 4.73408,5.23115 17.52085,6.91455 52.5211,6.91455 35.00024,0 47.78698,-1.6834 52.52107,-6.91455 3.70567,-4.09471 11.86276,-3.90973 15.83987,0.3592 7.56681,8.12205 0.0438,20.27015 -15.25112,24.62815 -19.89111,5.6675 -65.36963,7.1928 -91.83735,3.0801 z m 80.36975,-50.77138 c -5.63857,-2.27821 -10.056,-9.31384 -9.07305,-14.45056 1.14857,-6.0023 7.43702,-11.42737 13.24602,-11.42737 5.46009,0 13.4823,7.21289 13.4823,12.12213 0,5.59316 -4.26,11.80253 -9.3034,13.56066 -2.6589,0.92692 -4.90337,1.64193 -4.98763,1.58892 -0.0841,-0.0529 -1.59819,-0.6802 -3.36424,-1.39378 z m -86.49546,-1.70368 c -38.95689,-4.06394 -59.14546,-13.07517 -59.14546,-26.39978 0,-10.99449 12.08088,-15.64184 19.59228,-7.53688 7.49897,8.09149 37.4262,12.80332 81.32082,12.80332 h 28.68809 l -1.48378,5.37377 c -0.81606,2.9556 -1.10301,6.7187 -0.63767,8.36247 0.46539,1.6438 1.23433,4.3571 1.7088,6.02958 0.84274,2.9706 0.18372,3.03621 -28.5084,2.83865 -16.15411,-0.11123 -34.84471,-0.77324 -41.53468,-1.47113 z m 112.83133,-8.77038 c 0.52506,-3.91465 -0.051,-7.71605 -1.65722,-10.93577 -1.35411,-2.71441 -2.46204,-5.10401 -2.46204,-5.31027 0,-0.20628 3.48226,-1.21035 7.73838,-2.2314 4.65577,-1.11689 9.52205,-3.59998 12.216,-6.23342 11.49608,-11.23779 26.29195,1.11334 17.46742,14.58127 -4.4178,6.74239 -9.86916,9.40563 -31.58335,15.42987 -2.13378,0.59196 -2.39959,-0.22755 -1.71919,-5.30028 z M 209.50299,920.48522 c -7.32372,-3.18824 -9.16686,-12.07644 -3.64854,-17.59474 2.87363,-2.87362 5.06908,-3.04096 39.91178,-3.04215 66.04003,-10e-4 105.22391,-5.97013 116.13927,-17.68845 5.85279,-6.28331 11.29953,-6.67442 16.76982,-1.20421 3.24934,3.24936 3.76501,4.86069 3.0411,9.50281 -3.24564,20.813 -51.17962,32.23477 -134.80986,32.12264 -24.01505,-0.0321 -33.94054,-0.58837 -37.40357,-2.0959 z m -46.2211,-1.91196 c -5.16669,-1.96035 -9.1227,-7.17377 -9.1227,-12.02236 0,-7.02073 1.29497,-9.54752 6.19053,-12.07912 6.13935,-3.17477 9.64826,-2.77375 14.97909,1.71183 3.51215,2.9553 4.678,5.20774 4.678,9.03792 0,8.55041 -9.46485,16.10632 -16.72492,13.35173 z m -25.38301,-9.18273 c -9.35005,-3.13129 -18.64843,-12.05797 -19.72037,-18.93205 -0.72392,-4.64212 -0.20831,-6.25345 3.0411,-9.50281 5.47676,-5.47672 10.91923,-5.08052 16.76982,1.22083 2.62149,2.82353 6.30586,5.60642 8.18742,6.18425 3.81047,1.17022 4.24965,2.44977 1.71184,4.98757 -0.94002,0.94003 -2.13737,5.41463 -2.66079,9.94356 l -0.95162,8.23443 z m 150.78314,-37.52351 c -4.64146,-2.0097 -8.32558,-7.77307 -8.32558,-13.02445 0,-1.56897 1.77132,-4.95779 3.93626,-7.53067 4.98493,-5.92423 12.19932,-6.34691 18.32954,-1.07392 10.90393,9.37914 -0.68914,27.36651 -13.94022,21.62904 z m -90.42982,-4.13637 c -41.88626,-3.06972 -78.76956,-10.56342 -94.9714,-19.29569 -13.689892,-7.37838 -18.863916,-20.95513 -10.494741,-27.53835 2.203405,-1.73319 5.472173,-3.15126 7.263941,-3.15126 4.12422,0 10.01618,4.05732 10.01618,6.89735 0,3.1287 9.49392,7.47625 24.32718,11.14009 28.19156,6.9634 68.37554,10.85109 112.15937,10.85109 h 27.92685 l -1.24281,3.42101 c -0.68356,1.88156 -1.18752,7.01307 -1.11997,11.40337 l 0.12289,7.98236 -28.25111,-0.21414 c -15.53816,-0.11785 -36.11948,-0.79093 -45.73632,-1.49572 z m 167.72887,-10.46424 c -3.77892,-1.52256 -6.5613,-5.95304 -6.5613,-10.44777 0,-5.29259 6.35959,-10.16396 17.89667,-13.70874 6.08007,-1.86809 11.89579,-4.44397 12.92381,-5.72416 8.65293,-10.77537 13.80771,-12.28432 20.18366,-5.90837 10.72691,10.72692 -1.0856,25.34142 -27.13555,33.57217 -13.13727,4.15088 -12.65918,4.08963 -17.30729,2.21687 z m -183.9129,-47.6865 c -10.96743,-9.43377 0.43254,-27.20974 13.8537,-21.60203 9.42753,3.93906 11.25066,13.47881 3.96774,20.76173 -5.54377,5.54379 -11.99944,5.84818 -17.82144,0.8403 z m 117.22477,-1.64836 c -4.65611,-4.65611 -4.77684,-10.56588 -0.30715,-15.03557 2.98709,-2.98708 6.14527,-3.67617 24.70728,-5.39085 51.55118,-4.76208 84.61255,-13.13235 89.54486,-22.6704 3.30165,-6.38464 9.93811,-8.82471 15.7821,-5.80266 10.51585,5.43796 7.81865,18.30664 -5.92342,28.26136 -12.94175,9.37496 -53.30095,18.86565 -96.62815,22.72265 -24.04829,2.14076 -22.85901,2.23199 -27.17552,-2.08453 z M 135.91382,804.81398 C 114.97807,801.16505 93.831849,795.247 84.138099,790.32386 76.30961,786.34802 69.197248,778.45562 68.08105,772.5058 c -2.744588,-14.63001 13.65582,-20.80201 21.026269,-7.91288 4.38803,7.67358 25.165331,14.40889 58.782861,19.05549 25.90779,3.58094 24.84355,3.27284 23.02745,6.66631 -0.8547,1.59695 -1.55395,6.36953 -1.55395,10.60576 v 7.70219 l -6.46191,-0.11558 c -3.55404,-0.0635 -15.69863,-1.72545 -26.98795,-3.69312 z m 65.37928,-47.25647 c -3.76311,-0.31288 -16.42084,-1.30013 -28.1283,-2.19396 -46.42535,-3.54433 -89.864092,-11.96021 -110.262207,-21.36234 -21.124805,-9.73704 -29.55478,-27.36923 -16.569823,-34.6575 5.645201,-3.16856 11.581748,-1.14072 15.348075,5.24274 1.732177,2.93583 5.751784,6.66549 8.932435,8.28814 14.313503,7.3022 48.04642,14.34513 91.14816,19.03039 30.35779,3.29995 112.04078,4.6047 147.48352,2.35577 25.83433,-1.63924 69.79357,-6.50264 78.47849,-8.68243 3.40437,-0.85441 3.62632,-0.50538 3.6351,5.71673 0.004,3.64471 0.98486,8.49672 2.17715,10.78223 1.19229,2.28551 1.70121,4.4386 1.13095,4.78465 -2.03461,1.23464 -31.83681,5.47963 -55.01271,7.83592 -22.09306,2.24621 -121.12176,4.29293 -138.36084,2.85966 z m 202.9108,-16.5257 c -7.17396,-7.17397 -4.56958,-18.58896 5.08329,-22.28014 4.39801,-1.68174 13.0873,1.71596 15.38948,6.01765 7.10956,13.28433 -9.92196,26.81329 -20.47277,16.26249 z M 250.49026,699.16316 c -4.65574,-1.87883 -8.14504,-7.50785 -8.14504,-13.13977 0,-5.37266 7.05228,-12.72066 12.2087,-12.72066 8.71273,0 16.56501,9.78903 13.7633,17.15802 -1.68511,4.43216 -8.65236,10.24949 -12.11291,10.11369 -1.35067,-0.0529 -3.92197,-0.68808 -5.71405,-1.41128 z m -62.12096,-2.59219 c -20.76111,-1.10133 -62.10907,-5.33559 -80.58379,-8.25221 -70.785453,-11.175 -98.9492057,-26.32745 -94.363938,-50.769 4.046497,-21.56972 55.965153,-37.97947 146.819428,-46.40468 28.25624,-2.62031 123.3298,-3.60865 155.08575,-1.6122 115.40871,7.25552 174.88658,25.4781 174.84383,53.56788 -0.01,5.92008 -5.03139,14.87881 -10.91987,19.47855 -20.22954,15.80217 -79.78804,28.37557 -158.57644,33.47711 -13.36567,0.86542 -28.76022,1.5726 -34.21008,1.57151 l -9.90887,-10e-4 v -11.17662 -11.17658 l 25.0874,-0.9672 c 71.15464,-2.74324 138.90888,-14.3054 160.19356,-27.33674 l 5.86801,-3.59264 -4.09364,-3.22008 c -14.84625,-11.67851 -72.38983,-22.8678 -142.2021,-27.65146 -28.47772,-1.95137 -111.31122,-1.93089 -140.64151,0.0346 -44.90181,3.00917 -84.352611,8.63058 -111.752962,15.92384 -14.666205,3.90372 -33.449883,12.0069 -33.449883,14.4301 0,2.22386 18.211003,10.32597 32.149645,14.30343 29.66382,8.46471 85.98624,15.49475 137.38039,17.14752 l 28.88852,0.92905 v 11.17806 11.17809 l -18.24538,-0.2875 c -10.03497,-0.15813 -22.3506,-0.50527 -27.36807,-0.77141 z"
         id="path4147" />
    </g>
    <g
       id="text825"
       style="font-style:normal;font-variant:normal;font-weight:normal;font-stretch:normal;font-size:9.8777771px;line-height:6.61458302px;font-family:'Open Sans';-inkscape-font-specification:'Open Sans, Normal';font-variant-ligatures:normal;font-variant-caps:normal;font-variant-numeric:normal;font-feature-settings:normal;text-align:start;letter-spacing:0px;word-spacing:0px;writing-mode:lr-tb;text-anchor:start;display:inline;fill:#444444;fill-opacity:1;stroke:none;stroke-width:0.26458332px;stroke-linecap:butt;stroke-linejoin:miter;stroke-opacity:1"
       aria-label="bNesis">
      <path
         id="path1631"
         style="font-style:normal;font-variant:normal;font-weight:bold;font-stretch:normal;font-size:8.46666622px;line-height:6.61458302px;font-family:'Open Sans';-inkscape-font-specification:'Open Sans Bold';font-variant-ligatures:normal;font-variant-caps:normal;font-variant-numeric:normal;font-feature-settings:normal;text-align:start;writing-mode:lr-tb;text-anchor:start;fill:#444444;fill-opacity:1;stroke-width:0.26458332px"
         d="m -193.06508,-8.5180426 q 0.81855,0 1.28157,0.6407877 0.46303,0.6366536 0.46303,1.7487304 0,1.1451497 -0.47956,1.773535 -0.47543,0.6283854 -1.29811,0.6283854 -0.81442,0 -1.27745,-0.5911783 h -0.0868 l -0.21084,0.508496 h -0.96325 v -6.4326816 h 1.2609 v 1.4965491 q 0,0.2852539 -0.0496,0.9136393 h 0.0496 q 0.44236,-0.686263 1.31052,-0.686263 z m -0.40514,1.0087239 q -0.46716,0 -0.68213,0.289388 -0.21498,0.2852539 -0.22325,0.9467122 v 0.1364258 q 0,0.7441405 0.21911,1.0666015 0.22325,0.3224609 0.7028,0.3224609 0.38861,0 0.61599,-0.3555339 0.23151,-0.3596679 0.23151,-1.0417968 0,-0.6821288 -0.23151,-1.0211262 -0.23152,-0.3431315 -0.63252,-0.3431315 z" />
      <path
         id="path1633"
         style="font-style:normal;font-variant:normal;font-weight:bold;font-stretch:normal;font-size:8.46666622px;line-height:6.61458302px;font-family:'Open Sans';-inkscape-font-specification:'Open Sans Bold';font-variant-ligatures:normal;font-variant-caps:normal;font-variant-numeric:normal;font-feature-settings:normal;text-align:start;writing-mode:lr-tb;text-anchor:start;fill:#444444;fill-opacity:1;stroke-width:0.26458332px"
         d="m -184.81752,-3.8092864 h -1.62884 l -2.6293,-4.5723304 h -0.0372 q 0.0785,1.2112955 0.0785,1.7280598 v 2.8442706 h -1.14515 v -6.0440752 h 1.61644 l 2.62516,4.5268553 h 0.0289 q -0.062,-1.1782226 -0.062,-1.6660481 v -2.8608072 h 1.15342 z" />
      <path
         id="path1635"
         style="font-style:normal;font-variant:normal;font-weight:bold;font-stretch:normal;font-size:8.46666622px;line-height:6.61458302px;font-family:'Open Sans';-inkscape-font-specification:'Open Sans Bold';font-variant-ligatures:normal;font-variant-caps:normal;font-variant-numeric:normal;font-feature-settings:normal;text-align:start;writing-mode:lr-tb;text-anchor:start;fill:#444444;fill-opacity:1;stroke-width:0.26458332px"
         d="m -181.48543,-7.6209398 q -0.40101,0 -0.62838,0.2563151 -0.22738,0.252181 -0.26045,0.7193359 h 1.7694 q -0.008,-0.4671549 -0.24391,-0.7193359 -0.23565,-0.2563151 -0.63666,-0.2563151 z m 0.17777,3.8943357 q -1.11621,0 -1.7446,-0.615983 -0.62838,-0.615983 -0.62838,-1.7445963 0,-1.1616861 0.57877,-1.7942056 0.58291,-0.6366536 1.60818,-0.6366536 0.97978,0 1.52548,0.5581054 0.54571,0.5581055 0.54571,1.5420247 v 0.6118489 h -2.9807 q 0.0207,0.5374349 0.31833,0.8392252 0.29765,0.3017904 0.83509,0.3017904 0.41754,0 0.78961,-0.086816 0.37207,-0.086816 0.77722,-0.2769857 v 0.975651 q -0.33073,0.1653646 -0.70694,0.2439127 -0.3762,0.082682 -0.91777,0.082682 z" />
      <path
         id="path1637"
         style="font-style:normal;font-variant:normal;font-weight:bold;font-stretch:normal;font-size:8.46666622px;line-height:6.61458302px;font-family:'Open Sans';-inkscape-font-specification:'Open Sans Bold';font-variant-ligatures:normal;font-variant-caps:normal;font-variant-numeric:normal;font-feature-settings:normal;text-align:start;writing-mode:lr-tb;text-anchor:start;fill:#444444;fill-opacity:1;stroke-width:0.26458332px"
         d="m -175.16437,-5.1818123 q 0,0.7110676 -0.49609,1.0831379 -0.49196,0.3720703 -1.47588,0.3720703 -0.50436,0 -0.85989,-0.07028 -0.35554,-0.066146 -0.6656,-0.1984375 v -1.0417968 q 0.3514,0.1653646 0.78962,0.2769856 0.44235,0.1116211 0.77721,0.1116211 0.68626,0 0.68626,-0.396875 0,-0.1488281 -0.0909,-0.2397786 -0.091,-0.095085 -0.31419,-0.2108398 -0.22324,-0.1198893 -0.59531,-0.2769857 -0.5333,-0.2232422 -0.78548,-0.4134114 -0.24805,-0.1901693 -0.3638,-0.434082 -0.11163,-0.2480469 -0.11163,-0.6077148 0,-0.6159831 0.47543,-0.9508463 0.47955,-0.3389974 1.35599,-0.3389974 0.83509,0 1.6247,0.363802 l -0.38033,0.9095052 q -0.34727,-0.1488281 -0.64906,-0.2439127 -0.30179,-0.095085 -0.61598,-0.095085 -0.55811,0 -0.55811,0.3017904 0,0.1694987 0.17777,0.2935221 0.1819,0.1240234 0.78961,0.3679362 0.54157,0.219108 0.79375,0.4092773 0.25218,0.1901693 0.37207,0.4382161 0.11989,0.2480469 0.11989,0.5911784 z" />
      <path
         id="path1639"
         style="font-style:normal;font-variant:normal;font-weight:bold;font-stretch:normal;font-size:8.46666622px;line-height:6.61458302px;font-family:'Open Sans';-inkscape-font-specification:'Open Sans Bold';font-variant-ligatures:normal;font-variant-caps:normal;font-variant-numeric:normal;font-feature-settings:normal;text-align:start;writing-mode:lr-tb;text-anchor:start;fill:#444444;fill-opacity:1;stroke-width:0.26458332px"
         d="m -174.22592,-9.6259853 q 0,-0.6159827 0.68626,-0.6159827 0.68626,0 0.68626,0.6159827 0,0.2935222 -0.17363,0.4588867 -0.1695,0.1612305 -0.51263,0.1612305 -0.68626,0 -0.68626,-0.6201172 z m 1.31465,5.8166989 h -1.26091 v -4.6219398 h 1.26091 z" />
      <path
         id="path1641"
         style="font-style:normal;font-variant:normal;font-weight:bold;font-stretch:normal;font-size:8.46666622px;line-height:6.61458302px;font-family:'Open Sans';-inkscape-font-specification:'Open Sans Bold';font-variant-ligatures:normal;font-variant-caps:normal;font-variant-numeric:normal;font-feature-settings:normal;text-align:start;writing-mode:lr-tb;text-anchor:start;fill:#444444;fill-opacity:1;stroke-width:0.26458332px"
         d="m -168.36788,-5.1818123 q 0,0.7110676 -0.49609,1.0831379 -0.49196,0.3720703 -1.47588,0.3720703 -0.50437,0 -0.8599,-0.07028 -0.35553,-0.066146 -0.66559,-0.1984375 v -1.0417968 q 0.3514,0.1653646 0.78961,0.2769856 0.44235,0.1116211 0.77722,0.1116211 0.68626,0 0.68626,-0.396875 0,-0.1488281 -0.091,-0.2397786 -0.0909,-0.095085 -0.31419,-0.2108398 -0.22324,-0.1198893 -0.59531,-0.2769857 -0.53331,-0.2232422 -0.78549,-0.4134114 -0.24804,-0.1901693 -0.3638,-0.434082 -0.11162,-0.2480469 -0.11162,-0.6077148 0,-0.6159831 0.47542,-0.9508463 0.47956,-0.3389974 1.35599,-0.3389974 0.83509,0 1.62471,0.363802 l -0.38034,0.9095052 q -0.34726,-0.1488281 -0.64905,-0.2439127 -0.30179,-0.095085 -0.61599,-0.095085 -0.5581,0 -0.5581,0.3017904 0,0.1694987 0.17776,0.2935221 0.1819,0.1240234 0.78962,0.3679362 0.54157,0.219108 0.79375,0.4092773 0.25218,0.1901693 0.37207,0.4382161 0.11989,0.2480469 0.11989,0.5911784 z" />
    </g>
  </g>
</svg>
